<?xml version="1.0" encoding="UTF-8"?>
<!DOCTYPE svg PUBLIC "-//W3C//DTD SVG 1.1//EN" "http://www.w3.org/Graphics/SVG/1.1/DTD/svg11.dtd">
<svg version="1.1" xmlns="http://www.w3.org/2000/svg" xmlns:xlink="http://www.w3.org/1999/xlink" x="0" y="0" width="600" height="200" viewBox="0, 0, 600, 200">
  <g id="Layer_1">
    <path d="M70,40 z" fill="#8FC7ED"/>
    <g>
      <path d="M40.5,20.5 L60.5,20.5 L60.5,40.5 L40.5,40.5 L40.5,20.5 z" fill="#8FC7ED"/>
      <path d="M40.5,20.5 L60.5,20.5 L60.5,40.5 L40.5,40.5 L40.5,20.5 z" fill-opacity="0" stroke="#294270" stroke-width="1"/>
    </g>
    <g>
      <path d="M60.5,20.5 L80.5,20.5 L80.5,40.5 L60.5,40.5 L60.5,20.5 z" fill="#8FC7ED"/>
      <path d="M60.5,20.5 L80.5,20.5 L80.5,40.5 L60.5,40.5 L60.5,20.5 z" fill-opacity="0" stroke="#294270" stroke-width="1"/>
    </g>
    <path d="M110,40 z" fill="#8FC7ED"/>
    <g>
      <path d="M80.5,20.5 L100.5,20.5 L100.5,40.5 L80.5,40.5 L80.5,20.5 z" fill="#8FC7ED"/>
      <path d="M80.5,20.5 L100.5,20.5 L100.5,40.5 L80.5,40.5 L80.5,20.5 z" fill-opacity="0" stroke="#294270" stroke-width="1"/>
    </g>
    <g>
      <path d="M100.5,20.5 L120.5,20.5 L120.5,40.5 L100.5,40.5 L100.5,20.5 z" fill="#8FC7ED"/>
      <path d="M100.5,20.5 L120.5,20.5 L120.5,40.5 L100.5,40.5 L100.5,20.5 z" fill-opacity="0" stroke="#294270" stroke-width="1"/>
    </g>
    <path d="M70,60 z" fill="#8FC7ED"/>
    <g>
      <path d="M40.5,40.5 L60.5,40.5 L60.5,60.5 L40.5,60.5 L40.5,40.5 z" fill="#8FC7ED"/>
      <path d="M40.5,40.5 L60.5,40.5 L60.5,60.5 L40.5,60.5 L40.5,40.5 z" fill-opacity="0" stroke="#294270" stroke-width="1"/>
    </g>
    <g>
      <path d="M60.5,40.5 L80.5,40.5 L80.5,60.5 L60.5,60.5 L60.5,40.5 z" fill="#8FC7ED"/>
      <path d="M60.5,40.5 L80.5,40.5 L80.5,60.5 L60.5,60.5 L60.5,40.5 z" fill-opacity="0" stroke="#294270" stroke-width="1"/>
    </g>
    <path d="M110,60 z" fill="#8FC7ED"/>
    <g>
      <path d="M80.5,40.5 L100.5,40.5 L100.5,60.5 L80.5,60.5 L80.5,40.5 z" fill="#8FC7ED"/>
      <path d="M80.5,40.5 L100.5,40.5 L100.5,60.5 L80.5,60.5 L80.5,40.5 z" fill-opacity="0" stroke="#294270" stroke-width="1"/>
    </g>
    <g>
      <path d="M100.5,40.5 L120.5,40.5 L120.5,60.5 L100.5,60.5 L100.5,40.5 z" fill="#8FC7ED"/>
      <path d="M100.5,40.5 L120.5,40.5 L120.5,60.5 L100.5,60.5 L100.5,40.5 z" fill-opacity="0" stroke="#294270" stroke-width="1"/>
    </g>
    <path d="M70,80 z" fill="#8FC7ED"/>
    <g>
      <path d="M40.5,60.5 L60.5,60.5 L60.5,80.5 L40.5,80.5 L40.5,60.5 z" fill="#8FC7ED"/>
      <path d="M40.5,60.5 L60.5,60.5 L60.5,80.5 L40.5,80.5 L40.5,60.5 z" fill-opacity="0" stroke="#294270" stroke-width="1"/>
    </g>
    <g>
      <path d="M60.5,60.5 L80.5,60.5 L80.5,80.5 L60.5,80.5 L60.5,60.5 z" fill="#8FC7ED"/>
      <path d="M60.5,60.5 L80.5,60.5 L80.5,80.5 L60.5,80.5 L60.5,60.5 z" fill-opacity="0" stroke="#294270" stroke-width="1"/>
    </g>
    <path d="M110,80 z" fill="#8FC7ED"/>
    <g>
      <path d="M80.5,60.5 L100.5,60.5 L100.5,80.5 L80.5,80.5 L80.5,60.5 z" fill="#8FC7ED"/>
      <path d="M80.5,60.5 L100.5,60.5 L100.5,80.5 L80.5,80.5 L80.5,60.5 z" fill-opacity="0" stroke="#294270" stroke-width="1"/>
    </g>
    <g>
      <path d="M100.5,60.5 L120.5,60.5 L120.5,80.5 L100.5,80.5 L100.5,60.5 z" fill="#8FC7ED"/>
      <path d="M100.5,60.5 L120.5,60.5 L120.5,80.5 L100.5,80.5 L100.5,60.5 z" fill-opacity="0" stroke="#294270" stroke-width="1"/>
    </g>
    <path d="M70,100 z" fill="#8FC7ED"/>
    <g>
      <path d="M40.5,80.5 L60.5,80.5 L60.5,100.5 L40.5,100.5 L40.5,80.5 z" fill="#8FC7ED"/>
      <path d="M40.5,80.5 L60.5,80.5 L60.5,100.5 L40.5,100.5 L40.5,80.5 z" fill-opacity="0" stroke="#294270" stroke-width="1"/>
    </g>
    <g>
      <path d="M60.5,80.5 L80.5,80.5 L80.5,100.5 L60.5,100.5 L60.5,80.5 z" fill="#8FC7ED"/>
      <path d="M60.5,80.5 L80.5,80.5 L80.5,100.5 L60.5,100.5 L60.5,80.5 z" fill-opacity="0" stroke="#294270" stroke-width="1"/>
    </g>
    <path d="M110,100 z" fill="#8FC7ED"/>
    <g>
      <path d="M80.5,80.5 L100.5,80.5 L100.5,100.5 L80.5,100.5 L80.5,80.5 z" fill="#8FC7ED"/>
      <path d="M80.5,80.5 L100.5,80.5 L100.5,100.5 L80.5,100.5 L80.5,80.5 z" fill-opacity="0" stroke="#294270" stroke-width="1"/>
    </g>
    <g>
      <path d="M100.5,80.5 L120.5,80.5 L120.5,100.5 L100.5,100.5 L100.5,80.5 z" fill="#8FC7ED"/>
      <path d="M100.5,80.5 L120.5,80.5 L120.5,100.5 L100.5,100.5 L100.5,80.5 z" fill-opacity="0" stroke="#294270" stroke-width="1"/>
    </g>
    <g>
      <path d="M120.5,20.5 L140.5,20.5 L140.5,40.5 L120.5,40.5 L120.5,20.5 z" fill="#8FC7ED"/>
      <path d="M120.5,20.5 L140.5,20.5 L140.5,40.5 L120.5,40.5 L120.5,20.5 z" fill-opacity="0" stroke="#294270" stroke-width="1"/>
    </g>
    <g>
      <path d="M120.5,40.5 L140.5,40.5 L140.5,60.5 L120.5,60.5 L120.5,40.5 z" fill="#8FC7ED"/>
      <path d="M120.5,40.5 L140.5,40.5 L140.5,60.5 L120.5,60.5 L120.5,40.5 z" fill-opacity="0" stroke="#294270" stroke-width="1"/>
    </g>
    <g>
      <path d="M120.5,60.5 L140.5,60.5 L140.5,80.5 L120.5,80.5 L120.5,60.5 z" fill="#8FC7ED"/>
      <path d="M120.5,60.5 L140.5,60.5 L140.5,80.5 L120.5,80.5 L120.5,60.5 z" fill-opacity="0" stroke="#294270" stroke-width="1"/>
    </g>
    <g>
      <path d="M120.5,80.5 L140.5,80.5 L140.5,100.5 L120.5,100.5 L120.5,80.5 z" fill="#8FC7ED"/>
      <path d="M120.5,80.5 L140.5,80.5 L140.5,100.5 L120.5,100.5 L120.5,80.5 z" fill-opacity="0" stroke="#294270" stroke-width="1"/>
    </g>
    <path d="M70,120 z" fill="#8FC7ED"/>
    <g>
      <path d="M40.5,100.5 L60.5,100.5 L60.5,120.5 L40.5,120.5 L40.5,100.5 z" fill="#8FC7ED"/>
      <path d="M40.5,100.5 L60.5,100.5 L60.5,120.5 L40.5,120.5 L40.5,100.5 z" fill-opacity="0" stroke="#294270" stroke-width="1"/>
    </g>
    <g>
      <path d="M60.5,100.5 L80.5,100.5 L80.5,120.5 L60.5,120.5 L60.5,100.5 z" fill="#8FC7ED"/>
      <path d="M60.5,100.5 L80.5,100.5 L80.5,120.5 L60.5,120.5 L60.5,100.5 z" fill-opacity="0" stroke="#294270" stroke-width="1"/>
    </g>
    <path d="M110,120 z" fill="#8FC7ED"/>
    <g>
      <path d="M80.5,100.5 L100.5,100.5 L100.5,120.5 L80.5,120.5 L80.5,100.5 z" fill="#8FC7ED"/>
      <path d="M80.5,100.5 L100.5,100.5 L100.5,120.5 L80.5,120.5 L80.5,100.5 z" fill-opacity="0" stroke="#294270" stroke-width="1"/>
    </g>
    <g>
      <path d="M100.5,100.5 L120.5,100.5 L120.5,120.5 L100.5,120.5 L100.5,100.5 z" fill="#8FC7ED"/>
      <path d="M100.5,100.5 L120.5,100.5 L120.5,120.5 L100.5,120.5 L100.5,100.5 z" fill-opacity="0" stroke="#294270" stroke-width="1"/>
    </g>
    <g>
      <path d="M120.5,100.5 L140.5,100.5 L140.5,120.5 L120.5,120.5 L120.5,100.5 z" fill="#8FC7ED"/>
      <path d="M120.5,100.5 L140.5,100.5 L140.5,120.5 L120.5,120.5 L120.5,100.5 z" fill-opacity="0" stroke="#294270" stroke-width="1"/>
    </g>
    <path d="M70,80 C64.477,80 60,75.523 60,70 C60,64.477 64.477,60 70,60 C75.523,60 80,64.477 80,70 C80,75.523 75.523,80 70,80 z" fill="#294270"/>
    <path d="M90,60 C84.477,60 80,55.523 80,50 C80,44.477 84.477,40 90,40 C95.523,40 100,44.477 100,50 C100,55.523 95.523,60 90,60 z" fill="#294270"/>
    <path d="M90,80 C84.477,80 80,75.523 80,70 C80,64.477 84.477,60 90,60 C95.523,60 100,64.477 100,70 C100,75.523 95.523,80 90,80 z" fill="#294270"/>
    <path d="M110,80 C104.477,80 100,75.523 100,70 C100,64.477 104.477,60 110,60 C115.523,60 120,64.477 120,70 C120,75.523 115.523,80 110,80 z" fill="#294270"/>
    <path d="M90,100 C84.477,100 80,95.523 80,90 C80,84.477 84.477,80 90,80 C95.523,80 100,84.477 100,90 C100,95.523 95.523,100 90,100 z" fill="#294270"/>
    <path d="M170,40 z" fill="#8FC7ED"/>
    <g>
      <path d="M140.5,20.5 L160.5,20.5 L160.5,40.5 L140.5,40.5 L140.5,20.5 z" fill="#8FC7ED"/>
      <path d="M140.5,20.5 L160.5,20.5 L160.5,40.5 L140.5,40.5 L140.5,20.5 z" fill-opacity="0" stroke="#294270" stroke-width="1"/>
    </g>
    <g>
      <path d="M160.5,20.5 L180.5,20.5 L180.5,40.5 L160.5,40.5 L160.5,20.5 z" fill="#8FC7ED"/>
      <path d="M160.5,20.5 L180.5,20.5 L180.5,40.5 L160.5,40.5 L160.5,20.5 z" fill-opacity="0" stroke="#294270" stroke-width="1"/>
    </g>
    <path d="M210,40 z" fill="#8FC7ED"/>
    <g>
      <path d="M180.5,20.5 L200.5,20.5 L200.5,40.5 L180.5,40.5 L180.5,20.5 z" fill="#8FC7ED"/>
      <path d="M180.5,20.5 L200.5,20.5 L200.5,40.5 L180.5,40.5 L180.5,20.5 z" fill-opacity="0" stroke="#294270" stroke-width="1"/>
    </g>
    <g>
      <path d="M200.5,20.5 L220.5,20.5 L220.5,40.5 L200.5,40.5 L200.5,20.5 z" fill="#8FC7ED"/>
      <path d="M200.5,20.5 L220.5,20.5 L220.5,40.5 L200.5,40.5 L200.5,20.5 z" fill-opacity="0" stroke="#294270" stroke-width="1"/>
    </g>
    <path d="M170,60 z" fill="#8FC7ED"/>
    <g>
      <path d="M140.5,40.5 L160.5,40.5 L160.5,60.5 L140.5,60.5 L140.5,40.5 z" fill="#8FC7ED"/>
      <path d="M140.5,40.5 L160.5,40.5 L160.5,60.5 L140.5,60.5 L140.5,40.5 z" fill-opacity="0" stroke="#294270" stroke-width="1"/>
    </g>
    <g>
      <path d="M160.5,40.5 L180.5,40.5 L180.5,60.5 L160.5,60.5 L160.5,40.5 z" fill="#8FC7ED"/>
      <path d="M160.5,40.5 L180.5,40.5 L180.5,60.5 L160.5,60.5 L160.5,40.5 z" fill-opacity="0" stroke="#294270" stroke-width="1"/>
    </g>
    <path d="M210,60 z" fill="#8FC7ED"/>
    <g>
      <path d="M180.5,40.5 L200.5,40.5 L200.5,60.5 L180.5,60.5 L180.5,40.5 z" fill="#8FC7ED"/>
      <path d="M180.5,40.5 L200.5,40.5 L200.5,60.5 L180.5,60.5 L180.5,40.5 z" fill-opacity="0" stroke="#294270" stroke-width="1"/>
    </g>
    <g>
      <path d="M200.5,40.5 L220.5,40.5 L220.5,60.5 L200.5,60.5 L200.5,40.5 z" fill="#8FC7ED"/>
      <path d="M200.5,40.5 L220.5,40.5 L220.5,60.5 L200.5,60.5 L200.5,40.5 z" fill-opacity="0" stroke="#294270" stroke-width="1"/>
    </g>
    <path d="M170,80 z" fill="#8FC7ED"/>
    <g>
      <path d="M140.5,60.5 L160.5,60.5 L160.5,80.5 L140.5,80.5 L140.5,60.5 z" fill="#8FC7ED"/>
      <path d="M140.5,60.5 L160.5,60.5 L160.5,80.5 L140.5,80.5 L140.5,60.5 z" fill-opacity="0" stroke="#294270" stroke-width="1"/>
    </g>
    <g>
      <path d="M160.5,60.5 L180.5,60.5 L180.5,80.5 L160.5,80.5 L160.5,60.5 z" fill="#8FC7ED"/>
      <path d="M160.5,60.5 L180.5,60.5 L180.5,80.5 L160.5,80.5 L160.5,60.5 z" fill-opacity="0" stroke="#294270" stroke-width="1"/>
    </g>
    <path d="M210,80 z" fill="#8FC7ED"/>
    <g>
      <path d="M180.5,60.5 L200.5,60.5 L200.5,80.5 L180.5,80.5 L180.5,60.5 z" fill="#8FC7ED"/>
      <path d="M180.5,60.5 L200.5,60.5 L200.5,80.5 L180.5,80.5 L180.5,60.5 z" fill-opacity="0" stroke="#294270" stroke-width="1"/>
    </g>
    <g>
      <path d="M200.5,60.5 L220.5,60.5 L220.5,80.5 L200.5,80.5 L200.5,60.5 z" fill="#8FC7ED"/>
      <path d="M200.5,60.5 L220.5,60.5 L220.5,80.5 L200.5,80.5 L200.5,60.5 z" fill-opacity="0" stroke="#294270" stroke-width="1"/>
    </g>
    <path d="M170,100 z" fill="#8FC7ED"/>
    <g>
      <path d="M140.5,80.5 L160.5,80.5 L160.5,100.5 L140.5,100.5 L140.5,80.5 z" fill="#8FC7ED"/>
      <path d="M140.5,80.5 L160.5,80.5 L160.5,100.5 L140.5,100.5 L140.5,80.5 z" fill-opacity="0" stroke="#294270" stroke-width="1"/>
    </g>
    <g>
      <path d="M160.5,80.5 L180.5,80.5 L180.5,100.5 L160.5,100.5 L160.5,80.5 z" fill="#8FC7ED"/>
      <path d="M160.5,80.5 L180.5,80.5 L180.5,100.5 L160.5,100.5 L160.5,80.5 z" fill-opacity="0" stroke="#294270" stroke-width="1"/>
    </g>
    <path d="M210,100 z" fill="#8FC7ED"/>
    <g>
      <path d="M180.5,80.5 L200.5,80.5 L200.5,100.5 L180.5,100.5 L180.5,80.5 z" fill="#8FC7ED"/>
      <path d="M180.5,80.5 L200.5,80.5 L200.5,100.5 L180.5,100.5 L180.5,80.5 z" fill-opacity="0" stroke="#294270" stroke-width="1"/>
    </g>
    <g>
      <path d="M200.5,80.5 L220.5,80.5 L220.5,100.5 L200.5,100.5 L200.5,80.5 z" fill="#8FC7ED"/>
      <path d="M200.5,80.5 L220.5,80.5 L220.5,100.5 L200.5,100.5 L200.5,80.5 z" fill-opacity="0" stroke="#294270" stroke-width="1"/>
    </g>
    <g>
      <path d="M220.5,20.5 L240.5,20.5 L240.5,40.5 L220.5,40.5 L220.5,20.5 z" fill="#8FC7ED"/>
      <path d="M220.5,20.5 L240.5,20.5 L240.5,40.5 L220.5,40.5 L220.5,20.5 z" fill-opacity="0" stroke="#294270" stroke-width="1"/>
    </g>
    <g>
      <path d="M220.5,40.5 L240.5,40.5 L240.5,60.5 L220.5,60.5 L220.5,40.5 z" fill="#8FC7ED"/>
      <path d="M220.5,40.5 L240.5,40.5 L240.5,60.5 L220.5,60.5 L220.5,40.5 z" fill-opacity="0" stroke="#294270" stroke-width="1"/>
    </g>
    <g>
      <path d="M220.5,60.5 L240.5,60.5 L240.5,80.5 L220.5,80.5 L220.5,60.5 z" fill="#8FC7ED"/>
      <path d="M220.5,60.5 L240.5,60.5 L240.5,80.5 L220.5,80.5 L220.5,60.5 z" fill-opacity="0" stroke="#294270" stroke-width="1"/>
    </g>
    <g>
      <path d="M220.5,80.5 L240.5,80.5 L240.5,100.5 L220.5,100.5 L220.5,80.5 z" fill="#8FC7ED"/>
      <path d="M220.5,80.5 L240.5,80.5 L240.5,100.5 L220.5,100.5 L220.5,80.5 z" fill-opacity="0" stroke="#294270" stroke-width="1"/>
    </g>
    <path d="M170,120 z" fill="#8FC7ED"/>
    <g>
      <path d="M140.5,100.5 L160.5,100.5 L160.5,120.5 L140.5,120.5 L140.5,100.5 z" fill="#8FC7ED"/>
      <path d="M140.5,100.5 L160.5,100.5 L160.5,120.5 L140.5,120.5 L140.5,100.5 z" fill-opacity="0" stroke="#294270" stroke-width="1"/>
    </g>
    <g>
      <path d="M160.5,100.5 L180.5,100.5 L180.5,120.5 L160.5,120.5 L160.5,100.5 z" fill="#8FC7ED"/>
      <path d="M160.5,100.5 L180.5,100.5 L180.5,120.5 L160.5,120.5 L160.5,100.5 z" fill-opacity="0" stroke="#294270" stroke-width="1"/>
    </g>
    <path d="M210,120 z" fill="#8FC7ED"/>
    <g>
      <path d="M180.5,100.5 L200.5,100.5 L200.5,120.5 L180.5,120.5 L180.5,100.5 z" fill="#8FC7ED"/>
      <path d="M180.5,100.5 L200.5,100.5 L200.5,120.5 L180.5,120.5 L180.5,100.5 z" fill-opacity="0" stroke="#294270" stroke-width="1"/>
    </g>
    <g>
      <path d="M200.5,100.5 L220.5,100.5 L220.5,120.5 L200.5,120.5 L200.5,100.5 z" fill="#8FC7ED"/>
      <path d="M200.5,100.5 L220.5,100.5 L220.5,120.5 L200.5,120.5 L200.5,100.5 z" fill-opacity="0" stroke="#294270" stroke-width="1"/>
    </g>
    <g>
      <path d="M220.5,100.5 L240.5,100.5 L240.5,120.5 L220.5,120.5 L220.5,100.5 z" fill="#8FC7ED"/>
      <path d="M220.5,100.5 L240.5,100.5 L240.5,120.5 L220.5,120.5 L220.5,100.5 z" fill-opacity="0" stroke="#294270" stroke-width="1"/>
    </g>
    <path d="M110,120 C104.477,120 100,115.523 100,110 C100,104.477 104.477,100 110,100 C115.523,100 120,104.477 120,110 C120,115.523 115.523,120 110,120 z" fill="#294270"/>
    <path d="M130,100 C124.477,100 120,95.523 120,90 C120,84.477 124.477,80 130,80 C135.523,80 140,84.477 140,90 C140,95.523 135.523,100 130,100 z" fill="#294270"/>
    <path d="M90,140 C84.477,140 80,135.523 80,130 C80,124.477 84.477,120 90,120 C95.523,120 100,124.477 100,130 C100,135.523 95.523,140 90,140 z" fill="#294270"/>
    <path d="M270,40 z" fill="#8FC7ED"/>
    <g>
      <path d="M240.5,20.5 L260.5,20.5 L260.5,40.5 L240.5,40.5 L240.5,20.5 z" fill="#8FC7ED"/>
      <path d="M240.5,20.5 L260.5,20.5 L260.5,40.5 L240.5,40.5 L240.5,20.5 z" fill-opacity="0" stroke="#294270" stroke-width="1"/>
    </g>
    <g>
      <path d="M260.5,20.5 L280.5,20.5 L280.5,40.5 L260.5,40.5 L260.5,20.5 z" fill="#8FC7ED"/>
      <path d="M260.5,20.5 L280.5,20.5 L280.5,40.5 L260.5,40.5 L260.5,20.5 z" fill-opacity="0" stroke="#294270" stroke-width="1"/>
    </g>
    <path d="M310,40 z" fill="#8FC7ED"/>
    <g>
      <path d="M280.5,20.5 L300.5,20.5 L300.5,40.5 L280.5,40.5 L280.5,20.5 z" fill="#8FC7ED"/>
      <path d="M280.5,20.5 L300.5,20.5 L300.5,40.5 L280.5,40.5 L280.5,20.5 z" fill-opacity="0" stroke="#294270" stroke-width="1"/>
    </g>
    <g>
      <path d="M300.5,20.5 L320.5,20.5 L320.5,40.5 L300.5,40.5 L300.5,20.5 z" fill="#8FC7ED"/>
      <path d="M300.5,20.5 L320.5,20.5 L320.5,40.5 L300.5,40.5 L300.5,20.5 z" fill-opacity="0" stroke="#294270" stroke-width="1"/>
    </g>
    <path d="M270,60 z" fill="#8FC7ED"/>
    <g>
      <path d="M240.5,40.5 L260.5,40.5 L260.5,60.5 L240.5,60.5 L240.5,40.5 z" fill="#8FC7ED"/>
      <path d="M240.5,40.5 L260.5,40.5 L260.5,60.5 L240.5,60.5 L240.5,40.5 z" fill-opacity="0" stroke="#294270" stroke-width="1"/>
    </g>
    <g>
      <path d="M260.5,40.5 L280.5,40.5 L280.5,60.5 L260.5,60.5 L260.5,40.5 z" fill="#8FC7ED"/>
      <path d="M260.5,40.5 L280.5,40.5 L280.5,60.5 L260.5,60.5 L260.5,40.5 z" fill-opacity="0" stroke="#294270" stroke-width="1"/>
    </g>
    <path d="M310,60 z" fill="#8FC7ED"/>
    <g>
      <path d="M280.5,40.5 L300.5,40.5 L300.5,60.5 L280.5,60.5 L280.5,40.5 z" fill="#8FC7ED"/>
      <path d="M280.5,40.5 L300.5,40.5 L300.5,60.5 L280.5,60.5 L280.5,40.5 z" fill-opacity="0" stroke="#294270" stroke-width="1"/>
    </g>
    <g>
      <path d="M300.5,40.5 L320.5,40.5 L320.5,60.5 L300.5,60.5 L300.5,40.5 z" fill="#8FC7ED"/>
      <path d="M300.5,40.5 L320.5,40.5 L320.5,60.5 L300.5,60.5 L300.5,40.5 z" fill-opacity="0" stroke="#294270" stroke-width="1"/>
    </g>
    <path d="M270,80 z" fill="#8FC7ED"/>
    <g>
      <path d="M240.5,60.5 L260.5,60.5 L260.5,80.5 L240.5,80.5 L240.5,60.5 z" fill="#8FC7ED"/>
      <path d="M240.5,60.5 L260.5,60.5 L260.5,80.5 L240.5,80.5 L240.5,60.5 z" fill-opacity="0" stroke="#294270" stroke-width="1"/>
    </g>
    <g>
      <path d="M260.5,60.5 L280.5,60.5 L280.5,80.5 L260.5,80.5 L260.5,60.5 z" fill="#8FC7ED"/>
      <path d="M260.5,60.5 L280.5,60.5 L280.5,80.5 L260.5,80.5 L260.5,60.5 z" fill-opacity="0" stroke="#294270" stroke-width="1"/>
    </g>
    <path d="M310,80 z" fill="#8FC7ED"/>
    <g>
      <path d="M280.5,60.5 L300.5,60.5 L300.5,80.5 L280.5,80.5 L280.5,60.5 z" fill="#8FC7ED"/>
      <path d="M280.5,60.5 L300.5,60.5 L300.5,80.5 L280.5,80.5 L280.5,60.5 z" fill-opacity="0" stroke="#294270" stroke-width="1"/>
    </g>
    <g>
      <path d="M300.5,60.5 L320.5,60.5 L320.5,80.5 L300.5,80.5 L300.5,60.5 z" fill="#8FC7ED"/>
      <path d="M300.5,60.5 L320.5,60.5 L320.5,80.5 L300.5,80.5 L300.5,60.5 z" fill-opacity="0" stroke="#294270" stroke-width="1"/>
    </g>
    <path d="M270,100 z" fill="#8FC7ED"/>
    <g>
      <path d="M240.5,80.5 L260.5,80.5 L260.5,100.5 L240.5,100.5 L240.5,80.5 z" fill="#8FC7ED"/>
      <path d="M240.5,80.5 L260.5,80.5 L260.5,100.5 L240.5,100.5 L240.5,80.5 z" fill-opacity="0" stroke="#294270" stroke-width="1"/>
    </g>
    <g>
      <path d="M260.5,80.5 L280.5,80.5 L280.5,100.5 L260.5,100.5 L260.5,80.5 z" fill="#8FC7ED"/>
      <path d="M260.5,80.5 L280.5,80.5 L280.5,100.5 L260.5,100.5 L260.5,80.5 z" fill-opacity="0" stroke="#294270" stroke-width="1"/>
    </g>
    <path d="M310,100 z" fill="#8FC7ED"/>
    <g>
      <path d="M280.5,80.5 L300.5,80.5 L300.5,100.5 L280.5,100.5 L280.5,80.5 z" fill="#8FC7ED"/>
      <path d="M280.5,80.5 L300.5,80.5 L300.5,100.5 L280.5,100.5 L280.5,80.5 z" fill-opacity="0" stroke="#294270" stroke-width="1"/>
    </g>
    <g>
      <path d="M300.5,80.5 L320.5,80.5 L320.5,100.5 L300.5,100.5 L300.5,80.5 z" fill="#8FC7ED"/>
      <path d="M300.5,80.5 L320.5,80.5 L320.5,100.5 L300.5,100.5 L300.5,80.5 z" fill-opacity="0" stroke="#294270" stroke-width="1"/>
    </g>
    <g>
      <path d="M320.5,20.5 L340.5,20.5 L340.5,40.5 L320.5,40.5 L320.5,20.5 z" fill="#8FC7ED"/>
      <path d="M320.5,20.5 L340.5,20.5 L340.5,40.5 L320.5,40.5 L320.5,20.5 z" fill-opacity="0" stroke="#294270" stroke-width="1"/>
    </g>
    <g>
      <path d="M320.5,40.5 L340.5,40.5 L340.5,60.5 L320.5,60.5 L320.5,40.5 z" fill="#8FC7ED"/>
      <path d="M320.5,40.5 L340.5,40.5 L340.5,60.5 L320.5,60.5 L320.5,40.5 z" fill-opacity="0" stroke="#294270" stroke-width="1"/>
    </g>
    <g>
      <path d="M320.5,60.5 L340.5,60.5 L340.5,80.5 L320.5,80.5 L320.5,60.5 z" fill="#8FC7ED"/>
      <path d="M320.5,60.5 L340.5,60.5 L340.5,80.5 L320.5,80.5 L320.5,60.5 z" fill-opacity="0" stroke="#294270" stroke-width="1"/>
    </g>
    <g>
      <path d="M320.5,80.5 L340.5,80.5 L340.5,100.5 L320.5,100.5 L320.5,80.5 z" fill="#8FC7ED"/>
      <path d="M320.5,80.5 L340.5,80.5 L340.5,100.5 L320.5,100.5 L320.5,80.5 z" fill-opacity="0" stroke="#294270" stroke-width="1"/>
    </g>
    <path d="M270,120 z" fill="#8FC7ED"/>
    <g>
      <path d="M240.5,100.5 L260.5,100.5 L260.5,120.5 L240.5,120.5 L240.5,100.5 z" fill="#8FC7ED"/>
      <path d="M240.5,100.5 L260.5,100.5 L260.5,120.5 L240.5,120.5 L240.5,100.5 z" fill-opacity="0" stroke="#294270" stroke-width="1"/>
    </g>
    <g>
      <path d="M260.5,100.5 L280.5,100.5 L280.5,120.5 L260.5,120.5 L260.5,100.5 z" fill="#8FC7ED"/>
      <path d="M260.5,100.5 L280.5,100.5 L280.5,120.5 L260.5,120.5 L260.5,100.5 z" fill-opacity="0" stroke="#294270" stroke-width="1"/>
    </g>
    <path d="M310,120 z" fill="#8FC7ED"/>
    <g>
      <path d="M280.5,100.5 L300.5,100.5 L300.5,120.5 L280.5,120.5 L280.5,100.5 z" fill="#8FC7ED"/>
      <path d="M280.5,100.5 L300.5,100.5 L300.5,120.5 L280.5,120.5 L280.5,100.5 z" fill-opacity="0" stroke="#294270" stroke-width="1"/>
    </g>
    <g>
      <path d="M300.5,100.5 L320.5,100.5 L320.5,120.5 L300.5,120.5 L300.5,100.5 z" fill="#8FC7ED"/>
      <path d="M300.5,100.5 L320.5,100.5 L320.5,120.5 L300.5,120.5 L300.5,100.5 z" fill-opacity="0" stroke="#294270" stroke-width="1"/>
    </g>
    <g>
      <path d="M320.5,100.5 L340.5,100.5 L340.5,120.5 L320.5,120.5 L320.5,100.5 z" fill="#8FC7ED"/>
      <path d="M320.5,100.5 L340.5,100.5 L340.5,120.5 L320.5,120.5 L320.5,100.5 z" fill-opacity="0" stroke="#294270" stroke-width="1"/>
    </g>
    <path d="M150,120 C144.477,120 140,115.523 140,110 C140,104.477 144.477,100 150,100 C155.523,100 160,104.477 160,110 C160,115.523 155.523,120 150,120 z" fill="#294270"/>
    <g>
      <path d="M170,80 C164.477,80 160,75.523 160,70 C160,64.477 164.477,60 170,60 C175.523,60 180,64.477 180,70 C180,75.523 175.523,80 170,80 z" fill="#F0801A"/>
      <path d="M170,60 C175.523,60 180,64.477 180,70 C180,75.523 175.523,80 170,80 C164.477,80 160,75.523 160,70 C160,64.477 164.477,60 170,60 z M170,61 C165.029,61 161,65.029 161,70 C161,74.971 165.029,79 170,79 C174.971,79 179,74.971 179,70 C179,65.029 174.971,61 170,61 z" fill="#294270"/>
    </g>
    <g>
      <path d="M150,60 C144.477,60 140,55.523 140,50 C140,44.477 144.477,40 150,40 C155.523,40 160,44.477 160,50 C160,55.523 155.523,60 150,60 z" fill="#F0801A"/>
      <path d="M150,40 C155.523,40 160,44.477 160,50 C160,55.523 155.523,60 150,60 C144.477,60 140,55.523 140,50 C140,44.477 144.477,40 150,40 z M150,41 C145.029,41 141,45.029 141,50 C141,54.971 145.029,59 150,59 C154.971,59 159,54.971 159,50 C159,45.029 154.971,41 150,41 z" fill="#294270"/>
    </g>
    <path d="M370,40 z" fill="#8FC7ED"/>
    <g>
      <path d="M340.5,20.5 L360.5,20.5 L360.5,40.5 L340.5,40.5 L340.5,20.5 z" fill="#8FC7ED"/>
      <path d="M340.5,20.5 L360.5,20.5 L360.5,40.5 L340.5,40.5 L340.5,20.5 z" fill-opacity="0" stroke="#294270" stroke-width="1"/>
    </g>
    <g>
      <path d="M360.5,20.5 L380.5,20.5 L380.5,40.5 L360.5,40.5 L360.5,20.5 z" fill="#8FC7ED"/>
      <path d="M360.5,20.5 L380.5,20.5 L380.5,40.5 L360.5,40.5 L360.5,20.5 z" fill-opacity="0" stroke="#294270" stroke-width="1"/>
    </g>
    <path d="M410,40 z" fill="#8FC7ED"/>
    <g>
      <path d="M380.5,20.5 L400.5,20.5 L400.5,40.5 L380.5,40.5 L380.5,20.5 z" fill="#8FC7ED"/>
      <path d="M380.5,20.5 L400.5,20.5 L400.5,40.5 L380.5,40.5 L380.5,20.5 z" fill-opacity="0" stroke="#294270" stroke-width="1"/>
    </g>
    <g>
      <path d="M400.5,20.5 L420.5,20.5 L420.5,40.5 L400.5,40.5 L400.5,20.5 z" fill="#8FC7ED"/>
      <path d="M400.5,20.5 L420.5,20.5 L420.5,40.5 L400.5,40.5 L400.5,20.5 z" fill-opacity="0" stroke="#294270" stroke-width="1"/>
    </g>
    <path d="M370,60 z" fill="#8FC7ED"/>
    <g>
      <path d="M340.5,40.5 L360.5,40.5 L360.5,60.5 L340.5,60.5 L340.5,40.5 z" fill="#8FC7ED"/>
      <path d="M340.5,40.5 L360.5,40.5 L360.5,60.5 L340.5,60.5 L340.5,40.5 z" fill-opacity="0" stroke="#294270" stroke-width="1"/>
    </g>
    <g>
      <path d="M360.5,40.5 L380.5,40.5 L380.5,60.5 L360.5,60.5 L360.5,40.5 z" fill="#8FC7ED"/>
      <path d="M360.5,40.5 L380.5,40.5 L380.5,60.5 L360.5,60.5 L360.5,40.5 z" fill-opacity="0" stroke="#294270" stroke-width="1"/>
    </g>
    <path d="M410,60 z" fill="#8FC7ED"/>
    <g>
      <path d="M380.5,40.5 L400.5,40.5 L400.5,60.5 L380.5,60.5 L380.5,40.5 z" fill="#8FC7ED"/>
      <path d="M380.5,40.5 L400.5,40.5 L400.5,60.5 L380.5,60.5 L380.5,40.5 z" fill-opacity="0" stroke="#294270" stroke-width="1"/>
    </g>
    <g>
      <path d="M400.5,40.5 L420.5,40.5 L420.5,60.5 L400.5,60.5 L400.5,40.5 z" fill="#8FC7ED"/>
      <path d="M400.5,40.5 L420.5,40.5 L420.5,60.5 L400.5,60.5 L400.5,40.5 z" fill-opacity="0" stroke="#294270" stroke-width="1"/>
    </g>
    <path d="M370,80 z" fill="#8FC7ED"/>
    <g>
      <path d="M340.5,60.5 L360.5,60.5 L360.5,80.5 L340.5,80.5 L340.5,60.5 z" fill="#8FC7ED"/>
      <path d="M340.5,60.5 L360.5,60.5 L360.5,80.5 L340.5,80.5 L340.5,60.5 z" fill-opacity="0" stroke="#294270" stroke-width="1"/>
    </g>
    <g>
      <path d="M360.5,60.5 L380.5,60.5 L380.5,80.5 L360.5,80.5 L360.5,60.5 z" fill="#8FC7ED"/>
      <path d="M360.5,60.5 L380.5,60.5 L380.5,80.5 L360.5,80.5 L360.5,60.5 z" fill-opacity="0" stroke="#294270" stroke-width="1"/>
    </g>
    <path d="M410,80 z" fill="#8FC7ED"/>
    <g>
      <path d="M380.5,60.5 L400.5,60.5 L400.5,80.5 L380.5,80.5 L380.5,60.5 z" fill="#8FC7ED"/>
      <path d="M380.5,60.5 L400.5,60.5 L400.5,80.5 L380.5,80.5 L380.5,60.5 z" fill-opacity="0" stroke="#294270" stroke-width="1"/>
    </g>
    <g>
      <path d="M400.5,60.5 L420.5,60.5 L420.5,80.5 L400.5,80.5 L400.5,60.5 z" fill="#8FC7ED"/>
      <path d="M400.5,60.5 L420.5,60.5 L420.5,80.5 L400.5,80.5 L400.5,60.5 z" fill-opacity="0" stroke="#294270" stroke-width="1"/>
    </g>
    <path d="M370,100 z" fill="#8FC7ED"/>
    <g>
      <path d="M340.5,80.5 L360.5,80.5 L360.5,100.5 L340.5,100.5 L340.5,80.5 z" fill="#8FC7ED"/>
      <path d="M340.5,80.5 L360.5,80.5 L360.5,100.5 L340.5,100.5 L340.5,80.5 z" fill-opacity="0" stroke="#294270" stroke-width="1"/>
    </g>
    <g>
      <path d="M360.5,80.5 L380.5,80.5 L380.5,100.5 L360.5,100.5 L360.5,80.5 z" fill="#8FC7ED"/>
      <path d="M360.5,80.5 L380.5,80.5 L380.5,100.5 L360.5,100.5 L360.5,80.5 z" fill-opacity="0" stroke="#294270" stroke-width="1"/>
    </g>
    <path d="M410,100 z" fill="#8FC7ED"/>
    <g>
      <path d="M380.5,80.5 L400.5,80.5 L400.5,100.5 L380.5,100.5 L380.5,80.5 z" fill="#8FC7ED"/>
      <path d="M380.5,80.5 L400.5,80.5 L400.5,100.5 L380.5,100.5 L380.5,80.5 z" fill-opacity="0" stroke="#294270" stroke-width="1"/>
    </g>
    <g>
      <path d="M400.5,80.5 L420.5,80.5 L420.5,100.5 L400.5,100.5 L400.5,80.5 z" fill="#8FC7ED"/>
      <path d="M400.5,80.5 L420.5,80.5 L420.5,100.5 L400.5,100.5 L400.5,80.5 z" fill-opacity="0" stroke="#294270" stroke-width="1"/>
    </g>
    <g>
      <path d="M420.5,20.5 L440.5,20.5 L440.5,40.5 L420.5,40.5 L420.5,20.5 z" fill="#8FC7ED"/>
      <path d="M420.5,20.5 L440.5,20.5 L440.5,40.5 L420.5,40.5 L420.5,20.5 z" fill-opacity="0" stroke="#294270" stroke-width="1"/>
    </g>
    <g>
      <path d="M420.5,40.5 L440.5,40.5 L440.5,60.5 L420.5,60.5 L420.5,40.5 z" fill="#8FC7ED"/>
      <path d="M420.5,40.5 L440.5,40.5 L440.5,60.5 L420.5,60.5 L420.5,40.5 z" fill-opacity="0" stroke="#294270" stroke-width="1"/>
    </g>
    <g>
      <path d="M420.5,60.5 L440.5,60.5 L440.5,80.5 L420.5,80.5 L420.5,60.5 z" fill="#8FC7ED"/>
      <path d="M420.5,60.5 L440.5,60.5 L440.5,80.5 L420.5,80.5 L420.5,60.5 z" fill-opacity="0" stroke="#294270" stroke-width="1"/>
    </g>
    <g>
      <path d="M420.5,80.5 L440.5,80.5 L440.5,100.5 L420.5,100.5 L420.5,80.5 z" fill="#8FC7ED"/>
      <path d="M420.5,80.5 L440.5,80.5 L440.5,100.5 L420.5,100.5 L420.5,80.5 z" fill-opacity="0" stroke="#294270" stroke-width="1"/>
    </g>
    <path d="M370,120 z" fill="#8FC7ED"/>
    <g>
      <path d="M340.5,100.5 L360.5,100.5 L360.5,120.5 L340.5,120.5 L340.5,100.5 z" fill="#8FC7ED"/>
      <path d="M340.5,100.5 L360.5,100.5 L360.5,120.5 L340.5,120.5 L340.5,100.5 z" fill-opacity="0" stroke="#294270" stroke-width="1"/>
    </g>
    <g>
      <path d="M360.5,100.5 L380.5,100.5 L380.5,120.5 L360.5,120.5 L360.5,100.5 z" fill="#8FC7ED"/>
      <path d="M360.5,100.5 L380.5,100.5 L380.5,120.5 L360.5,120.5 L360.5,100.5 z" fill-opacity="0" stroke="#294270" stroke-width="1"/>
    </g>
    <path d="M410,120 z" fill="#8FC7ED"/>
    <g>
      <path d="M380.5,100.5 L400.5,100.5 L400.5,120.5 L380.5,120.5 L380.5,100.5 z" fill="#8FC7ED"/>
      <path d="M380.5,100.5 L400.5,100.5 L400.5,120.5 L380.5,120.5 L380.5,100.5 z" fill-opacity="0" stroke="#294270" stroke-width="1"/>
    </g>
    <g>
      <path d="M400.5,100.5 L420.5,100.5 L420.5,120.5 L400.5,120.5 L400.5,100.5 z" fill="#8FC7ED"/>
      <path d="M400.5,100.5 L420.5,100.5 L420.5,120.5 L400.5,120.5 L400.5,100.5 z" fill-opacity="0" stroke="#294270" stroke-width="1"/>
    </g>
    <g>
      <path d="M420.5,100.5 L440.5,100.5 L440.5,120.5 L420.5,120.5 L420.5,100.5 z" fill="#8FC7ED"/>
      <path d="M420.5,100.5 L440.5,100.5 L440.5,120.5 L420.5,120.5 L420.5,100.5 z" fill-opacity="0" stroke="#294270" stroke-width="1"/>
    </g>
    <path d="M370,80 C364.477,80 360,75.523 360,70 C360,64.477 364.477,60 370,60 C375.523,60 380,64.477 380,70 C380,75.523 375.523,80 370,80 z" fill="#294270"/>
    <path d="M390,60 C384.477,60 380,55.523 380,50 C380,44.477 384.477,40 390,40 C395.523,40 400,44.477 400,50 C400,55.523 395.523,60 390,60 z" fill="#294270"/>
    <path d="M390,80 C384.477,80 380,75.523 380,70 C380,64.477 384.477,60 390,60 C395.523,60 400,64.477 400,70 C400,75.523 395.523,80 390,80 z" fill="#294270"/>
    <path d="M410,80 C404.477,80 400,75.523 400,70 C400,64.477 404.477,60 410,60 C415.523,60 420,64.477 420,70 C420,75.523 415.523,80 410,80 z" fill="#294270"/>
    <path d="M390,100 C384.477,100 380,95.523 380,90 C380,84.477 384.477,80 390,80 C395.523,80 400,84.477 400,90 C400,95.523 395.523,100 390,100 z" fill="#294270"/>
    <path d="M470,40 z" fill="#8FC7ED"/>
    <g>
      <path d="M440.5,20.5 L460.5,20.5 L460.5,40.5 L440.5,40.5 L440.5,20.5 z" fill="#8FC7ED"/>
      <path d="M440.5,20.5 L460.5,20.5 L460.5,40.5 L440.5,40.5 L440.5,20.5 z" fill-opacity="0" stroke="#294270" stroke-width="1"/>
    </g>
    <g>
      <path d="M460.5,20.5 L480.5,20.5 L480.5,40.5 L460.5,40.5 L460.5,20.5 z" fill="#8FC7ED"/>
      <path d="M460.5,20.5 L480.5,20.5 L480.5,40.5 L460.5,40.5 L460.5,20.5 z" fill-opacity="0" stroke="#294270" stroke-width="1"/>
    </g>
    <path d="M510,40 z" fill="#8FC7ED"/>
    <g>
      <path d="M480.5,20.5 L500.5,20.5 L500.5,40.5 L480.5,40.5 L480.5,20.5 z" fill="#8FC7ED"/>
      <path d="M480.5,20.5 L500.5,20.5 L500.5,40.5 L480.5,40.5 L480.5,20.5 z" fill-opacity="0" stroke="#294270" stroke-width="1"/>
    </g>
    <g>
      <path d="M500.5,20.5 L520.5,20.5 L520.5,40.5 L500.5,40.5 L500.5,20.5 z" fill="#8FC7ED"/>
      <path d="M500.5,20.5 L520.5,20.5 L520.5,40.5 L500.5,40.5 L500.5,20.5 z" fill-opacity="0" stroke="#294270" stroke-width="1"/>
    </g>
    <path d="M470,60 z" fill="#8FC7ED"/>
    <g>
      <path d="M440.5,40.5 L460.5,40.5 L460.5,60.5 L440.5,60.5 L440.5,40.5 z" fill="#8FC7ED"/>
      <path d="M440.5,40.5 L460.5,40.5 L460.5,60.5 L440.5,60.5 L440.5,40.5 z" fill-opacity="0" stroke="#294270" stroke-width="1"/>
    </g>
    <g>
      <path d="M460.5,40.5 L480.5,40.5 L480.5,60.5 L460.5,60.5 L460.5,40.5 z" fill="#8FC7ED"/>
      <path d="M460.5,40.5 L480.5,40.5 L480.5,60.5 L460.5,60.5 L460.5,40.5 z" fill-opacity="0" stroke="#294270" stroke-width="1"/>
    </g>
    <path d="M510,60 z" fill="#8FC7ED"/>
    <g>
      <path d="M480.5,40.5 L500.5,40.5 L500.5,60.5 L480.5,60.5 L480.5,40.5 z" fill="#8FC7ED"/>
      <path d="M480.5,40.5 L500.5,40.5 L500.5,60.5 L480.5,60.5 L480.5,40.5 z" fill-opacity="0" stroke="#294270" stroke-width="1"/>
    </g>
    <g>
      <path d="M500.5,40.5 L520.5,40.5 L520.5,60.5 L500.5,60.5 L500.5,40.5 z" fill="#8FC7ED"/>
      <path d="M500.5,40.5 L520.5,40.5 L520.5,60.5 L500.5,60.5 L500.5,40.5 z" fill-opacity="0" stroke="#294270" stroke-width="1"/>
    </g>
    <path d="M470,80 z" fill="#8FC7ED"/>
    <g>
      <path d="M440.5,60.5 L460.5,60.5 L460.5,80.5 L440.5,80.5 L440.5,60.5 z" fill="#8FC7ED"/>
      <path d="M440.5,60.5 L460.5,60.5 L460.5,80.5 L440.5,80.5 L440.5,60.5 z" fill-opacity="0" stroke="#294270" stroke-width="1"/>
    </g>
    <g>
      <path d="M460.5,60.5 L480.5,60.5 L480.5,80.5 L460.5,80.5 L460.5,60.5 z" fill="#8FC7ED"/>
      <path d="M460.5,60.5 L480.5,60.5 L480.5,80.5 L460.5,80.5 L460.5,60.5 z" fill-opacity="0" stroke="#294270" stroke-width="1"/>
    </g>
    <path d="M510,80 z" fill="#8FC7ED"/>
    <g>
      <path d="M480.5,60.5 L500.5,60.5 L500.5,80.5 L480.5,80.5 L480.5,60.5 z" fill="#8FC7ED"/>
      <path d="M480.5,60.5 L500.5,60.5 L500.5,80.5 L480.5,80.5 L480.5,60.5 z" fill-opacity="0" stroke="#294270" stroke-width="1"/>
    </g>
    <g>
      <path d="M500.5,60.5 L520.5,60.5 L520.5,80.5 L500.5,80.5 L500.5,60.5 z" fill="#8FC7ED"/>
      <path d="M500.5,60.5 L520.5,60.5 L520.5,80.5 L500.5,80.5 L500.5,60.5 z" fill-opacity="0" stroke="#294270" stroke-width="1"/>
    </g>
    <path d="M470,100 z" fill="#8FC7ED"/>
    <g>
      <path d="M440.5,80.5 L460.5,80.5 L460.5,100.5 L440.5,100.5 L440.5,80.5 z" fill="#8FC7ED"/>
      <path d="M440.5,80.5 L460.5,80.5 L460.5,100.5 L440.5,100.5 L440.5,80.5 z" fill-opacity="0" stroke="#294270" stroke-width="1"/>
    </g>
    <g>
      <path d="M460.5,80.5 L480.5,80.5 L480.5,100.5 L460.5,100.5 L460.5,80.5 z" fill="#8FC7ED"/>
      <path d="M460.5,80.5 L480.5,80.5 L480.5,100.5 L460.5,100.5 L460.5,80.5 z" fill-opacity="0" stroke="#294270" stroke-width="1"/>
    </g>
    <path d="M510,100 z" fill="#8FC7ED"/>
    <g>
      <path d="M480.5,80.5 L500.5,80.5 L500.5,100.5 L480.5,100.5 L480.5,80.5 z" fill="#8FC7ED"/>
      <path d="M480.5,80.5 L500.5,80.5 L500.5,100.5 L480.5,100.5 L480.5,80.5 z" fill-opacity="0" stroke="#294270" stroke-width="1"/>
    </g>
    <g>
      <path d="M500.5,80.5 L520.5,80.5 L520.5,100.5 L500.5,100.5 L500.5,80.5 z" fill="#8FC7ED"/>
      <path d="M500.5,80.5 L520.5,80.5 L520.5,100.5 L500.5,100.5 L500.5,80.5 z" fill-opacity="0" stroke="#294270" stroke-width="1"/>
    </g>
    <g>
      <path d="M520.5,20.5 L540.5,20.5 L540.5,40.5 L520.5,40.5 L520.5,20.5 z" fill="#8FC7ED"/>
      <path d="M520.5,20.5 L540.5,20.5 L540.5,40.5 L520.5,40.5 L520.5,20.5 z" fill-opacity="0" stroke="#294270" stroke-width="1"/>
    </g>
    <g>
      <path d="M520.5,40.5 L540.5,40.5 L540.5,60.5 L520.5,60.5 L520.5,40.5 z" fill="#8FC7ED"/>
      <path d="M520.5,40.5 L540.5,40.5 L540.5,60.5 L520.5,60.5 L520.5,40.5 z" fill-opacity="0" stroke="#294270" stroke-width="1"/>
    </g>
    <g>
      <path d="M520.5,60.5 L540.5,60.5 L540.5,80.5 L520.5,80.5 L520.5,60.5 z" fill="#8FC7ED"/>
      <path d="M520.5,60.5 L540.5,60.5 L540.5,80.5 L520.5,80.5 L520.5,60.5 z" fill-opacity="0" stroke="#294270" stroke-width="1"/>
    </g>
    <g>
      <path d="M520.5,80.5 L540.5,80.5 L540.5,100.5 L520.5,100.5 L520.5,80.5 z" fill="#8FC7ED"/>
      <path d="M520.5,80.5 L540.5,80.5 L540.5,100.5 L520.5,100.5 L520.5,80.5 z" fill-opacity="0" stroke="#294270" stroke-width="1"/>
    </g>
    <path d="M470,120 z" fill="#8FC7ED"/>
    <g>
      <path d="M440.5,100.5 L460.5,100.5 L460.5,120.5 L440.5,120.5 L440.5,100.5 z" fill="#8FC7ED"/>
      <path d="M440.5,100.5 L460.5,100.5 L460.5,120.5 L440.5,120.5 L440.5,100.5 z" fill-opacity="0" stroke="#294270" stroke-width="1"/>
    </g>
    <g>
      <path d="M460.5,100.5 L480.5,100.5 L480.5,120.5 L460.5,120.5 L460.5,100.5 z" fill="#8FC7ED"/>
      <path d="M460.5,100.5 L480.5,100.5 L480.5,120.5 L460.5,120.5 L460.5,100.5 z" fill-opacity="0" stroke="#294270" stroke-width="1"/>
    </g>
    <path d="M510,120 z" fill="#8FC7ED"/>
    <g>
      <path d="M480.5,100.5 L500.5,100.5 L500.5,120.5 L480.5,120.5 L480.5,100.5 z" fill="#8FC7ED"/>
      <path d="M480.5,100.5 L500.5,100.5 L500.5,120.5 L480.5,120.5 L480.5,100.5 z" fill-opacity="0" stroke="#294270" stroke-width="1"/>
    </g>
    <g>
      <path d="M500.5,100.5 L520.5,100.5 L520.5,120.5 L500.5,120.5 L500.5,100.5 z" fill="#8FC7ED"/>
      <path d="M500.5,100.5 L520.5,100.5 L520.5,120.5 L500.5,120.5 L500.5,100.5 z" fill-opacity="0" stroke="#294270" stroke-width="1"/>
    </g>
    <g>
      <path d="M520.5,100.5 L540.5,100.5 L540.5,120.5 L520.5,120.5 L520.5,100.5 z" fill="#8FC7ED"/>
      <path d="M520.5,100.5 L540.5,100.5 L540.5,120.5 L520.5,120.5 L520.5,100.5 z" fill-opacity="0" stroke="#294270" stroke-width="1"/>
    </g>
    <g>
      <path d="M540.5,20.5 L560.5,20.5 L560.5,40.5 L540.5,40.5 L540.5,20.5 z" fill="#8FC7ED"/>
      <path d="M540.5,20.5 L560.5,20.5 L560.5,40.5 L540.5,40.5 L540.5,20.5 z" fill-opacity="0" stroke="#294270" stroke-width="1"/>
    </g>
    <g>
      <path d="M540.5,40.5 L560.5,40.5 L560.5,60.5 L540.5,60.5 L540.5,40.5 z" fill="#8FC7ED"/>
      <path d="M540.5,40.5 L560.5,40.5 L560.5,60.5 L540.5,60.5 L540.5,40.5 z" fill-opacity="0" stroke="#294270" stroke-width="1"/>
    </g>
    <g>
      <path d="M540.5,60.5 L560.5,60.5 L560.5,80.5 L540.5,80.5 L540.5,60.5 z" fill="#8FC7ED"/>
      <path d="M540.5,60.5 L560.5,60.5 L560.5,80.5 L540.5,80.5 L540.5,60.5 z" fill-opacity="0" stroke="#294270" stroke-width="1"/>
    </g>
    <g>
      <path d="M540.5,80.5 L560.5,80.5 L560.5,100.5 L540.5,100.5 L540.5,80.5 z" fill="#8FC7ED"/>
      <path d="M540.5,80.5 L560.5,80.5 L560.5,100.5 L540.5,100.5 L540.5,80.5 z" fill-opacity="0" stroke="#294270" stroke-width="1"/>
    </g>
    <g>
      <path d="M540.5,100.5 L560.5,100.5 L560.5,120.5 L540.5,120.5 L540.5,100.5 z" fill="#8FC7ED"/>
      <path d="M540.5,100.5 L560.5,100.5 L560.5,120.5 L540.5,120.5 L540.5,100.5 z" fill-opacity="0" stroke="#294270" stroke-width="1"/>
    </g>
    <path d="M70,140 z" fill="#8FC7ED"/>
    <g>
      <path d="M40.5,120.5 L60.5,120.5 L60.5,140.5 L40.5,140.5 L40.5,120.5 z" fill="#8FC7ED"/>
      <path d="M40.5,120.5 L60.5,120.5 L60.5,140.5 L40.5,140.5 L40.5,120.5 z" fill-opacity="0" stroke="#294270" stroke-width="1"/>
    </g>
    <g>
      <path d="M60.5,120.5 L80.5,120.5 L80.5,140.5 L60.5,140.5 L60.5,120.5 z" fill="#8FC7ED"/>
      <path d="M60.5,120.5 L80.5,120.5 L80.5,140.5 L60.5,140.5 L60.5,120.5 z" fill-opacity="0" stroke="#294270" stroke-width="1"/>
    </g>
    <path d="M110,140 z" fill="#8FC7ED"/>
    <g>
      <path d="M80.5,120.5 L100.5,120.5 L100.5,140.5 L80.5,140.5 L80.5,120.5 z" fill="#8FC7ED"/>
      <path d="M80.5,120.5 L100.5,120.5 L100.5,140.5 L80.5,140.5 L80.5,120.5 z" fill-opacity="0" stroke="#294270" stroke-width="1"/>
    </g>
    <g>
      <path d="M100.5,120.5 L120.5,120.5 L120.5,140.5 L100.5,140.5 L100.5,120.5 z" fill="#8FC7ED"/>
      <path d="M100.5,120.5 L120.5,120.5 L120.5,140.5 L100.5,140.5 L100.5,120.5 z" fill-opacity="0" stroke="#294270" stroke-width="1"/>
    </g>
    <g>
      <path d="M120.5,120.5 L140.5,120.5 L140.5,140.5 L120.5,140.5 L120.5,120.5 z" fill="#8FC7ED"/>
      <path d="M120.5,120.5 L140.5,120.5 L140.5,140.5 L120.5,140.5 L120.5,120.5 z" fill-opacity="0" stroke="#294270" stroke-width="1"/>
    </g>
    <path d="M170,140 z" fill="#8FC7ED"/>
    <g>
      <path d="M140.5,120.5 L160.5,120.5 L160.5,140.5 L140.5,140.5 L140.5,120.5 z" fill="#8FC7ED"/>
      <path d="M140.5,120.5 L160.5,120.5 L160.5,140.5 L140.5,140.5 L140.5,120.5 z" fill-opacity="0" stroke="#294270" stroke-width="1"/>
    </g>
    <g>
      <path d="M160.5,120.5 L180.5,120.5 L180.5,140.5 L160.5,140.5 L160.5,120.5 z" fill="#8FC7ED"/>
      <path d="M160.5,120.5 L180.5,120.5 L180.5,140.5 L160.5,140.5 L160.5,120.5 z" fill-opacity="0" stroke="#294270" stroke-width="1"/>
    </g>
    <path d="M210,140 z" fill="#8FC7ED"/>
    <g>
      <path d="M180.5,120.5 L200.5,120.5 L200.5,140.5 L180.5,140.5 L180.5,120.5 z" fill="#8FC7ED"/>
      <path d="M180.5,120.5 L200.5,120.5 L200.5,140.5 L180.5,140.5 L180.5,120.5 z" fill-opacity="0" stroke="#294270" stroke-width="1"/>
    </g>
    <g>
      <path d="M200.5,120.5 L220.5,120.5 L220.5,140.5 L200.5,140.5 L200.5,120.5 z" fill="#8FC7ED"/>
      <path d="M200.5,120.5 L220.5,120.5 L220.5,140.5 L200.5,140.5 L200.5,120.5 z" fill-opacity="0" stroke="#294270" stroke-width="1"/>
    </g>
    <g>
      <path d="M220.5,120.5 L240.5,120.5 L240.5,140.5 L220.5,140.5 L220.5,120.5 z" fill="#8FC7ED"/>
      <path d="M220.5,120.5 L240.5,120.5 L240.5,140.5 L220.5,140.5 L220.5,120.5 z" fill-opacity="0" stroke="#294270" stroke-width="1"/>
    </g>
    <path d="M270,140 z" fill="#8FC7ED"/>
    <g>
      <path d="M240.5,120.5 L260.5,120.5 L260.5,140.5 L240.5,140.5 L240.5,120.5 z" fill="#8FC7ED"/>
      <path d="M240.5,120.5 L260.5,120.5 L260.5,140.5 L240.5,140.5 L240.5,120.5 z" fill-opacity="0" stroke="#294270" stroke-width="1"/>
    </g>
    <g>
      <path d="M260.5,120.5 L280.5,120.5 L280.5,140.5 L260.5,140.5 L260.5,120.5 z" fill="#8FC7ED"/>
      <path d="M260.5,120.5 L280.5,120.5 L280.5,140.5 L260.5,140.5 L260.5,120.5 z" fill-opacity="0" stroke="#294270" stroke-width="1"/>
    </g>
    <path d="M310,140 z" fill="#8FC7ED"/>
    <g>
      <path d="M280.5,120.5 L300.5,120.5 L300.5,140.5 L280.5,140.5 L280.5,120.5 z" fill="#8FC7ED"/>
      <path d="M280.5,120.5 L300.5,120.5 L300.5,140.5 L280.5,140.5 L280.5,120.5 z" fill-opacity="0" stroke="#294270" stroke-width="1"/>
    </g>
    <g>
      <path d="M300.5,120.5 L320.5,120.5 L320.5,140.5 L300.5,140.5 L300.5,120.5 z" fill="#8FC7ED"/>
      <path d="M300.5,120.5 L320.5,120.5 L320.5,140.5 L300.5,140.5 L300.5,120.5 z" fill-opacity="0" stroke="#294270" stroke-width="1"/>
    </g>
    <g>
      <path d="M320.5,120.5 L340.5,120.5 L340.5,140.5 L320.5,140.5 L320.5,120.5 z" fill="#8FC7ED"/>
      <path d="M320.5,120.5 L340.5,120.5 L340.5,140.5 L320.5,140.5 L320.5,120.5 z" fill-opacity="0" stroke="#294270" stroke-width="1"/>
    </g>
    <path d="M370,140 z" fill="#8FC7ED"/>
    <g>
      <path d="M340.5,120.5 L360.5,120.5 L360.5,140.5 L340.5,140.5 L340.5,120.5 z" fill="#8FC7ED"/>
      <path d="M340.5,120.5 L360.5,120.5 L360.5,140.5 L340.5,140.5 L340.5,120.5 z" fill-opacity="0" stroke="#294270" stroke-width="1"/>
    </g>
    <g>
      <path d="M360.5,120.5 L380.5,120.5 L380.5,140.5 L360.5,140.5 L360.5,120.5 z" fill="#8FC7ED"/>
      <path d="M360.5,120.5 L380.5,120.5 L380.5,140.5 L360.5,140.5 L360.5,120.5 z" fill-opacity="0" stroke="#294270" stroke-width="1"/>
    </g>
    <path d="M410,140 z" fill="#8FC7ED"/>
    <g>
      <path d="M380.5,120.5 L400.5,120.5 L400.5,140.5 L380.5,140.5 L380.5,120.5 z" fill="#8FC7ED"/>
      <path d="M380.5,120.5 L400.5,120.5 L400.5,140.5 L380.5,140.5 L380.5,120.5 z" fill-opacity="0" stroke="#294270" stroke-width="1"/>
    </g>
    <g>
      <path d="M400.5,120.5 L420.5,120.5 L420.5,140.5 L400.5,140.5 L400.5,120.5 z" fill="#8FC7ED"/>
      <path d="M400.5,120.5 L420.5,120.5 L420.5,140.5 L400.5,140.5 L400.5,120.5 z" fill-opacity="0" stroke="#294270" stroke-width="1"/>
    </g>
    <g>
      <path d="M420.5,120.5 L440.5,120.5 L440.5,140.5 L420.5,140.5 L420.5,120.5 z" fill="#8FC7ED"/>
      <path d="M420.5,120.5 L440.5,120.5 L440.5,140.5 L420.5,140.5 L420.5,120.5 z" fill-opacity="0" stroke="#294270" stroke-width="1"/>
    </g>
    <path d="M470,140 z" fill="#8FC7ED"/>
    <g>
      <path d="M440.5,120.5 L460.5,120.5 L460.5,140.5 L440.5,140.5 L440.5,120.5 z" fill="#8FC7ED"/>
      <path d="M440.5,120.5 L460.5,120.5 L460.5,140.5 L440.5,140.5 L440.5,120.5 z" fill-opacity="0" stroke="#294270" stroke-width="1"/>
    </g>
    <g>
      <path d="M460.5,120.5 L480.5,120.5 L480.5,140.5 L460.5,140.5 L460.5,120.5 z" fill="#8FC7ED"/>
      <path d="M460.5,120.5 L480.5,120.5 L480.5,140.5 L460.5,140.5 L460.5,120.5 z" fill-opacity="0" stroke="#294270" stroke-width="1"/>
    </g>
    <path d="M510,140 z" fill="#8FC7ED"/>
    <g>
      <path d="M480.5,120.5 L500.5,120.5 L500.5,140.5 L480.5,140.5 L480.5,120.5 z" fill="#8FC7ED"/>
      <path d="M480.5,120.5 L500.5,120.5 L500.5,140.5 L480.5,140.5 L480.5,120.5 z" fill-opacity="0" stroke="#294270" stroke-width="1"/>
    </g>
    <g>
      <path d="M500.5,120.5 L520.5,120.5 L520.5,140.5 L500.5,140.5 L500.5,120.5 z" fill="#8FC7ED"/>
      <path d="M500.5,120.5 L520.5,120.5 L520.5,140.5 L500.5,140.5 L500.5,120.5 z" fill-opacity="0" stroke="#294270" stroke-width="1"/>
    </g>
    <g>
      <path d="M520.5,120.5 L540.5,120.5 L540.5,140.5 L520.5,140.5 L520.5,120.5 z" fill="#8FC7ED"/>
      <path d="M520.5,120.5 L540.5,120.5 L540.5,140.5 L520.5,140.5 L520.5,120.5 z" fill-opacity="0" stroke="#294270" stroke-width="1"/>
    </g>
    <g>
      <path d="M540.5,120.5 L560.5,120.5 L560.5,140.5 L540.5,140.5 L540.5,120.5 z" fill="#8FC7ED"/>
      <path d="M540.5,120.5 L560.5,120.5 L560.5,140.5 L540.5,140.5 L540.5,120.5 z" fill-opacity="0" stroke="#294270" stroke-width="1"/>
    </g>
    <path d="M70,160 z" fill="#8FC7ED"/>
    <g>
      <path d="M40.5,140.5 L60.5,140.5 L60.5,160.5 L40.5,160.5 L40.5,140.5 z" fill="#8FC7ED"/>
      <path d="M40.5,140.5 L60.5,140.5 L60.5,160.5 L40.5,160.5 L40.5,140.5 z" fill-opacity="0" stroke="#294270" stroke-width="1"/>
    </g>
    <g>
      <path d="M60.5,140.5 L80.5,140.5 L80.5,160.5 L60.5,160.5 L60.5,140.5 z" fill="#8FC7ED"/>
      <path d="M60.5,140.5 L80.5,140.5 L80.5,160.5 L60.5,160.5 L60.5,140.5 z" fill-opacity="0" stroke="#294270" stroke-width="1"/>
    </g>
    <path d="M110,160 z" fill="#8FC7ED"/>
    <g>
      <path d="M80.5,140.5 L100.5,140.5 L100.5,160.5 L80.5,160.5 L80.5,140.5 z" fill="#8FC7ED"/>
      <path d="M80.5,140.5 L100.5,140.5 L100.5,160.5 L80.5,160.5 L80.5,140.5 z" fill-opacity="0" stroke="#294270" stroke-width="1"/>
    </g>
    <g>
      <path d="M100.5,140.5 L120.5,140.5 L120.5,160.5 L100.5,160.5 L100.5,140.5 z" fill="#8FC7ED"/>
      <path d="M100.5,140.5 L120.5,140.5 L120.5,160.5 L100.5,160.5 L100.5,140.5 z" fill-opacity="0" stroke="#294270" stroke-width="1"/>
    </g>
    <g>
      <path d="M120.5,140.5 L140.5,140.5 L140.5,160.5 L120.5,160.5 L120.5,140.5 z" fill="#8FC7ED"/>
      <path d="M120.5,140.5 L140.5,140.5 L140.5,160.5 L120.5,160.5 L120.5,140.5 z" fill-opacity="0" stroke="#294270" stroke-width="1"/>
    </g>
    <path d="M170,160 z" fill="#8FC7ED"/>
    <g>
      <path d="M140.5,140.5 L160.5,140.5 L160.5,160.5 L140.5,160.5 L140.5,140.5 z" fill="#8FC7ED"/>
      <path d="M140.5,140.5 L160.5,140.5 L160.5,160.5 L140.5,160.5 L140.5,140.5 z" fill-opacity="0" stroke="#294270" stroke-width="1"/>
    </g>
    <g>
      <path d="M160.5,140.5 L180.5,140.5 L180.5,160.5 L160.5,160.5 L160.5,140.5 z" fill="#8FC7ED"/>
      <path d="M160.5,140.5 L180.5,140.5 L180.5,160.5 L160.5,160.5 L160.5,140.5 z" fill-opacity="0" stroke="#294270" stroke-width="1"/>
    </g>
    <path d="M210,160 z" fill="#8FC7ED"/>
    <g>
      <path d="M180.5,140.5 L200.5,140.5 L200.5,160.5 L180.5,160.5 L180.5,140.5 z" fill="#8FC7ED"/>
      <path d="M180.5,140.5 L200.5,140.5 L200.5,160.5 L180.5,160.5 L180.5,140.5 z" fill-opacity="0" stroke="#294270" stroke-width="1"/>
    </g>
    <g>
      <path d="M200.5,140.5 L220.5,140.5 L220.5,160.5 L200.5,160.5 L200.5,140.5 z" fill="#8FC7ED"/>
      <path d="M200.5,140.5 L220.5,140.5 L220.5,160.5 L200.5,160.5 L200.5,140.5 z" fill-opacity="0" stroke="#294270" stroke-width="1"/>
    </g>
    <g>
      <path d="M220.5,140.5 L240.5,140.5 L240.5,160.5 L220.5,160.5 L220.5,140.5 z" fill="#8FC7ED"/>
      <path d="M220.5,140.5 L240.5,140.5 L240.5,160.5 L220.5,160.5 L220.5,140.5 z" fill-opacity="0" stroke="#294270" stroke-width="1"/>
    </g>
    <path d="M270,160 z" fill="#8FC7ED"/>
    <g>
      <path d="M240.5,140.5 L260.5,140.5 L260.5,160.5 L240.5,160.5 L240.5,140.5 z" fill="#8FC7ED"/>
      <path d="M240.5,140.5 L260.5,140.5 L260.5,160.5 L240.5,160.5 L240.5,140.5 z" fill-opacity="0" stroke="#294270" stroke-width="1"/>
    </g>
    <g>
      <path d="M260.5,140.5 L280.5,140.5 L280.5,160.5 L260.5,160.5 L260.5,140.5 z" fill="#8FC7ED"/>
      <path d="M260.5,140.5 L280.5,140.5 L280.5,160.5 L260.5,160.5 L260.5,140.5 z" fill-opacity="0" stroke="#294270" stroke-width="1"/>
    </g>
    <path d="M310,160 z" fill="#8FC7ED"/>
    <g>
      <path d="M280.5,140.5 L300.5,140.5 L300.5,160.5 L280.5,160.5 L280.5,140.5 z" fill="#8FC7ED"/>
      <path d="M280.5,140.5 L300.5,140.5 L300.5,160.5 L280.5,160.5 L280.5,140.5 z" fill-opacity="0" stroke="#294270" stroke-width="1"/>
    </g>
    <g>
      <path d="M300.5,140.5 L320.5,140.5 L320.5,160.5 L300.5,160.5 L300.5,140.5 z" fill="#8FC7ED"/>
      <path d="M300.5,140.5 L320.5,140.5 L320.5,160.5 L300.5,160.5 L300.5,140.5 z" fill-opacity="0" stroke="#294270" stroke-width="1"/>
    </g>
    <g>
      <path d="M320.5,140.5 L340.5,140.5 L340.5,160.5 L320.5,160.5 L320.5,140.5 z" fill="#8FC7ED"/>
      <path d="M320.5,140.5 L340.5,140.5 L340.5,160.5 L320.5,160.5 L320.5,140.5 z" fill-opacity="0" stroke="#294270" stroke-width="1"/>
    </g>
    <path d="M370,160 z" fill="#8FC7ED"/>
    <g>
      <path d="M340.5,140.5 L360.5,140.5 L360.5,160.5 L340.5,160.5 L340.5,140.5 z" fill="#8FC7ED"/>
      <path d="M340.5,140.5 L360.5,140.5 L360.5,160.5 L340.5,160.5 L340.5,140.5 z" fill-opacity="0" stroke="#294270" stroke-width="1"/>
    </g>
    <g>
      <path d="M360.5,140.5 L380.5,140.5 L380.5,160.5 L360.5,160.5 L360.5,140.5 z" fill="#8FC7ED"/>
      <path d="M360.5,140.5 L380.5,140.5 L380.5,160.5 L360.5,160.5 L360.5,140.5 z" fill-opacity="0" stroke="#294270" stroke-width="1"/>
    </g>
    <path d="M410,160 z" fill="#8FC7ED"/>
    <g>
      <path d="M380.5,140.5 L400.5,140.5 L400.5,160.5 L380.5,160.5 L380.5,140.5 z" fill="#8FC7ED"/>
      <path d="M380.5,140.5 L400.5,140.5 L400.5,160.5 L380.5,160.5 L380.5,140.5 z" fill-opacity="0" stroke="#294270" stroke-width="1"/>
    </g>
    <g>
      <path d="M400.5,140.5 L420.5,140.5 L420.5,160.5 L400.5,160.5 L400.5,140.5 z" fill="#8FC7ED"/>
      <path d="M400.5,140.5 L420.5,140.5 L420.5,160.5 L400.5,160.5 L400.5,140.5 z" fill-opacity="0" stroke="#294270" stroke-width="1"/>
    </g>
    <g>
      <path d="M420.5,140.5 L440.5,140.5 L440.5,160.5 L420.5,160.5 L420.5,140.5 z" fill="#8FC7ED"/>
      <path d="M420.5,140.5 L440.5,140.5 L440.5,160.5 L420.5,160.5 L420.5,140.5 z" fill-opacity="0" stroke="#294270" stroke-width="1"/>
    </g>
    <path d="M470,160 z" fill="#8FC7ED"/>
    <g>
      <path d="M440.5,140.5 L460.5,140.5 L460.5,160.5 L440.5,160.5 L440.5,140.5 z" fill="#8FC7ED"/>
      <path d="M440.5,140.5 L460.5,140.5 L460.5,160.5 L440.5,160.5 L440.5,140.5 z" fill-opacity="0" stroke="#294270" stroke-width="1"/>
    </g>
    <g>
      <path d="M460.5,140.5 L480.5,140.5 L480.5,160.5 L460.5,160.5 L460.5,140.5 z" fill="#8FC7ED"/>
      <path d="M460.5,140.5 L480.5,140.5 L480.5,160.5 L460.5,160.5 L460.5,140.5 z" fill-opacity="0" stroke="#294270" stroke-width="1"/>
    </g>
    <path d="M510,160 z" fill="#8FC7ED"/>
    <g>
      <path d="M480.5,140.5 L500.5,140.5 L500.5,160.5 L480.5,160.5 L480.5,140.5 z" fill="#8FC7ED"/>
      <path d="M480.5,140.5 L500.5,140.5 L500.5,160.5 L480.5,160.5 L480.5,140.5 z" fill-opacity="0" stroke="#294270" stroke-width="1"/>
    </g>
    <g>
      <path d="M500.5,140.5 L520.5,140.5 L520.5,160.5 L500.5,160.5 L500.5,140.5 z" fill="#8FC7ED"/>
      <path d="M500.5,140.5 L520.5,140.5 L520.5,160.5 L500.5,160.5 L500.5,140.5 z" fill-opacity="0" stroke="#294270" stroke-width="1"/>
    </g>
    <g>
      <path d="M520.5,140.5 L540.5,140.5 L540.5,160.5 L520.5,160.5 L520.5,140.5 z" fill="#8FC7ED"/>
      <path d="M520.5,140.5 L540.5,140.5 L540.5,160.5 L520.5,160.5 L520.5,140.5 z" fill-opacity="0" stroke="#294270" stroke-width="1"/>
    </g>
    <g>
      <path d="M540.5,140.5 L560.5,140.5 L560.5,160.5 L540.5,160.5 L540.5,140.5 z" fill="#8FC7ED"/>
      <path d="M540.5,140.5 L560.5,140.5 L560.5,160.5 L540.5,160.5 L540.5,140.5 z" fill-opacity="0" stroke="#294270" stroke-width="1"/>
    </g>
    <path d="M70,180 z" fill="#8FC7ED"/>
    <g>
      <path d="M40.5,160.5 L60.5,160.5 L60.5,180.5 L40.5,180.5 L40.5,160.5 z" fill="#8FC7ED"/>
      <path d="M40.5,160.5 L60.5,160.5 L60.5,180.5 L40.5,180.5 L40.5,160.5 z" fill-opacity="0" stroke="#294270" stroke-width="1"/>
    </g>
    <g>
      <path d="M60.5,160.5 L80.5,160.5 L80.5,180.5 L60.5,180.5 L60.5,160.5 z" fill="#8FC7ED"/>
      <path d="M60.5,160.5 L80.5,160.5 L80.5,180.5 L60.5,180.5 L60.5,160.5 z" fill-opacity="0" stroke="#294270" stroke-width="1"/>
    </g>
    <path d="M110,180 z" fill="#8FC7ED"/>
    <g>
      <path d="M80.5,160.5 L100.5,160.5 L100.5,180.5 L80.5,180.5 L80.5,160.5 z" fill="#8FC7ED"/>
      <path d="M80.5,160.5 L100.5,160.5 L100.5,180.5 L80.5,180.5 L80.5,160.5 z" fill-opacity="0" stroke="#294270" stroke-width="1"/>
    </g>
    <g>
      <path d="M100.5,160.5 L120.5,160.5 L120.5,180.5 L100.5,180.5 L100.5,160.5 z" fill="#8FC7ED"/>
      <path d="M100.5,160.5 L120.5,160.5 L120.5,180.5 L100.5,180.5 L100.5,160.5 z" fill-opacity="0" stroke="#294270" stroke-width="1"/>
    </g>
    <g>
      <path d="M120.5,160.5 L140.5,160.5 L140.5,180.5 L120.5,180.5 L120.5,160.5 z" fill="#8FC7ED"/>
      <path d="M120.5,160.5 L140.5,160.5 L140.5,180.5 L120.5,180.5 L120.5,160.5 z" fill-opacity="0" stroke="#294270" stroke-width="1"/>
    </g>
    <path d="M170,180 z" fill="#8FC7ED"/>
    <g>
      <path d="M140.5,160.5 L160.5,160.5 L160.5,180.5 L140.5,180.5 L140.5,160.5 z" fill="#8FC7ED"/>
      <path d="M140.5,160.5 L160.5,160.5 L160.5,180.5 L140.5,180.5 L140.5,160.5 z" fill-opacity="0" stroke="#294270" stroke-width="1"/>
    </g>
    <g>
      <path d="M160.5,160.5 L180.5,160.5 L180.5,180.5 L160.5,180.5 L160.5,160.5 z" fill="#8FC7ED"/>
      <path d="M160.5,160.5 L180.5,160.5 L180.5,180.5 L160.5,180.5 L160.5,160.5 z" fill-opacity="0" stroke="#294270" stroke-width="1"/>
    </g>
    <path d="M210,180 z" fill="#8FC7ED"/>
    <g>
      <path d="M180.5,160.5 L200.5,160.5 L200.5,180.5 L180.5,180.5 L180.5,160.5 z" fill="#8FC7ED"/>
      <path d="M180.5,160.5 L200.5,160.5 L200.5,180.5 L180.5,180.5 L180.5,160.5 z" fill-opacity="0" stroke="#294270" stroke-width="1"/>
    </g>
    <g>
      <path d="M200.5,160.5 L220.5,160.5 L220.5,180.5 L200.5,180.5 L200.5,160.5 z" fill="#8FC7ED"/>
      <path d="M200.5,160.5 L220.5,160.5 L220.5,180.5 L200.5,180.5 L200.5,160.5 z" fill-opacity="0" stroke="#294270" stroke-width="1"/>
    </g>
    <g>
      <path d="M220.5,160.5 L240.5,160.5 L240.5,180.5 L220.5,180.5 L220.5,160.5 z" fill="#8FC7ED"/>
      <path d="M220.5,160.5 L240.5,160.5 L240.5,180.5 L220.5,180.5 L220.5,160.5 z" fill-opacity="0" stroke="#294270" stroke-width="1"/>
    </g>
    <path d="M270,180 z" fill="#8FC7ED"/>
    <g>
      <path d="M240.5,160.5 L260.5,160.5 L260.5,180.5 L240.5,180.5 L240.5,160.5 z" fill="#8FC7ED"/>
      <path d="M240.5,160.5 L260.5,160.5 L260.5,180.5 L240.5,180.5 L240.5,160.5 z" fill-opacity="0" stroke="#294270" stroke-width="1"/>
    </g>
    <g>
      <path d="M260.5,160.5 L280.5,160.5 L280.5,180.5 L260.5,180.5 L260.5,160.5 z" fill="#8FC7ED"/>
      <path d="M260.5,160.5 L280.5,160.5 L280.5,180.5 L260.5,180.5 L260.5,160.5 z" fill-opacity="0" stroke="#294270" stroke-width="1"/>
    </g>
    <path d="M310,180 z" fill="#8FC7ED"/>
    <g>
      <path d="M280.5,160.5 L300.5,160.5 L300.5,180.5 L280.5,180.5 L280.5,160.5 z" fill="#8FC7ED"/>
      <path d="M280.5,160.5 L300.5,160.5 L300.5,180.5 L280.5,180.5 L280.5,160.5 z" fill-opacity="0" stroke="#294270" stroke-width="1"/>
    </g>
    <g>
      <path d="M300.5,160.5 L320.5,160.5 L320.5,180.5 L300.5,180.5 L300.5,160.5 z" fill="#8FC7ED"/>
      <path d="M300.5,160.5 L320.5,160.5 L320.5,180.5 L300.5,180.5 L300.5,160.5 z" fill-opacity="0" stroke="#294270" stroke-width="1"/>
    </g>
    <g>
      <path d="M320.5,160.5 L340.5,160.5 L340.5,180.5 L320.5,180.5 L320.5,160.5 z" fill="#8FC7ED"/>
      <path d="M320.5,160.5 L340.5,160.5 L340.5,180.5 L320.5,180.5 L320.5,160.5 z" fill-opacity="0" stroke="#294270" stroke-width="1"/>
    </g>
    <path d="M370,180 z" fill="#8FC7ED"/>
    <g>
      <path d="M340.5,160.5 L360.5,160.5 L360.5,180.5 L340.5,180.5 L340.5,160.5 z" fill="#8FC7ED"/>
      <path d="M340.5,160.5 L360.5,160.5 L360.5,180.5 L340.5,180.5 L340.5,160.5 z" fill-opacity="0" stroke="#294270" stroke-width="1"/>
    </g>
    <g>
      <path d="M360.5,160.5 L380.5,160.5 L380.5,180.5 L360.5,180.5 L360.5,160.5 z" fill="#8FC7ED"/>
      <path d="M360.5,160.5 L380.5,160.5 L380.5,180.5 L360.5,180.5 L360.5,160.5 z" fill-opacity="0" stroke="#294270" stroke-width="1"/>
    </g>
    <path d="M410,180 z" fill="#8FC7ED"/>
    <g>
      <path d="M380.5,160.5 L400.5,160.5 L400.5,180.5 L380.5,180.5 L380.5,160.5 z" fill="#8FC7ED"/>
      <path d="M380.5,160.5 L400.5,160.5 L400.5,180.5 L380.5,180.5 L380.5,160.5 z" fill-opacity="0" stroke="#294270" stroke-width="1"/>
    </g>
    <g>
      <path d="M400.5,160.5 L420.5,160.5 L420.5,180.5 L400.5,180.5 L400.5,160.5 z" fill="#8FC7ED"/>
      <path d="M400.5,160.5 L420.5,160.5 L420.5,180.5 L400.5,180.5 L400.5,160.5 z" fill-opacity="0" stroke="#294270" stroke-width="1"/>
    </g>
    <g>
      <path d="M420.5,160.5 L440.5,160.5 L440.5,180.5 L420.5,180.5 L420.5,160.5 z" fill="#8FC7ED"/>
      <path d="M420.5,160.5 L440.5,160.5 L440.5,180.5 L420.5,180.5 L420.5,160.5 z" fill-opacity="0" stroke="#294270" stroke-width="1"/>
    </g>
    <path d="M470,180 z" fill="#8FC7ED"/>
    <g>
      <path d="M440.5,160.5 L460.5,160.5 L460.5,180.5 L440.5,180.5 L440.5,160.5 z" fill="#8FC7ED"/>
      <path d="M440.5,160.5 L460.5,160.5 L460.5,180.5 L440.5,180.5 L440.5,160.5 z" fill-opacity="0" stroke="#294270" stroke-width="1"/>
    </g>
    <g>
      <path d="M460.5,160.5 L480.5,160.5 L480.5,180.5 L460.5,180.5 L460.5,160.5 z" fill="#8FC7ED"/>
      <path d="M460.5,160.5 L480.5,160.5 L480.5,180.5 L460.5,180.5 L460.5,160.5 z" fill-opacity="0" stroke="#294270" stroke-width="1"/>
    </g>
    <path d="M510,180 z" fill="#8FC7ED"/>
    <g>
      <path d="M480.5,160.5 L500.5,160.5 L500.5,180.5 L480.5,180.5 L480.5,160.5 z" fill="#8FC7ED"/>
      <path d="M480.5,160.5 L500.5,160.5 L500.5,180.5 L480.5,180.5 L480.5,160.5 z" fill-opacity="0" stroke="#294270" stroke-width="1"/>
    </g>
    <g>
      <path d="M500.5,160.5 L520.5,160.5 L520.5,180.5 L500.5,180.5 L500.5,160.5 z" fill="#8FC7ED"/>
      <path d="M500.5,160.5 L520.5,160.5 L520.5,180.5 L500.5,180.5 L500.5,160.5 z" fill-opacity="0" stroke="#294270" stroke-width="1"/>
    </g>
    <g>
      <path d="M520.5,160.5 L540.5,160.5 L540.5,180.5 L520.5,180.5 L520.5,160.5 z" fill="#8FC7ED"/>
      <path d="M520.5,160.5 L540.5,160.5 L540.5,180.5 L520.5,180.5 L520.5,160.5 z" fill-opacity="0" stroke="#294270" stroke-width="1"/>
    </g>
    <g>
      <path d="M540.5,160.5 L560.5,160.5 L560.5,180.5 L540.5,180.5 L540.5,160.5 z" fill="#8FC7ED"/>
      <path d="M540.5,160.5 L560.5,160.5 L560.5,180.5 L540.5,180.5 L540.5,160.5 z" fill-opacity="0" stroke="#294270" stroke-width="1"/>
    </g>
    <path d="M90,140 C84.477,140 80,135.523 80,130 C80,124.477 84.477,120 90,120 C95.523,120 100,124.477 100,130 C100,135.523 95.523,140 90,140 z" fill="#294270"/>
    <path d="M110,140 C104.477,140 100,135.523 100,130 C100,124.477 104.477,120 110,120 C115.523,120 120,124.477 120,130 C120,135.523 115.523,140 110,140 z" fill="#294270"/>
    <path d="M150,140 C144.477,140 140,135.523 140,130 C140,124.477 144.477,120 150,120 C155.523,120 160,124.477 160,130 C160,135.523 155.523,140 150,140 z" fill="#294270"/>
    <path d="M130,120 C124.477,120 120,115.523 120,110 C120,104.477 124.477,100 130,100 C135.523,100 140,104.477 140,110 C140,115.523 135.523,120 130,120 z" fill="#294270"/>
    <path d="M130,160 C124.477,160 120,155.523 120,150 C120,144.477 124.477,140 130,140 C135.523,140 140,144.477 140,150 C140,155.523 135.523,160 130,160 z" fill="#294270"/>
    <path d="M130,180 C124.477,180 120,175.523 120,170 C120,164.477 124.477,160 130,160 C135.523,160 140,164.477 140,170 C140,175.523 135.523,180 130,180 z" fill="#294270"/>
    <path d="M130,140 C124.477,140 120,135.523 120,130 C120,124.477 124.477,120 130,120 C135.523,120 140,124.477 140,130 C140,135.523 135.523,140 130,140 z" fill="#294270"/>
    <path d="M110,160 C104.477,160 100,155.523 100,150 C100,144.477 104.477,140 110,140 C115.523,140 120,144.477 120,150 C120,155.523 115.523,160 110,160 z" fill="#294270"/>
    <path d="M150,160 C144.477,160 140,155.523 140,150 C140,144.477 144.477,140 150,140 C155.523,140 160,144.477 160,150 C160,155.523 155.523,160 150,160 z" fill="#294270"/>
    <path d="M170,140 C164.477,140 160,135.523 160,130 C160,124.477 164.477,120 170,120 C175.523,120 180,124.477 180,130 C180,135.523 175.523,140 170,140 z" fill="#294270"/>
    <g>
      <path d="M270,160 C264.477,160 260,155.523 260,150 C260,144.477 264.477,140 270,140 C275.523,140 280,144.477 280,150 C280,155.523 275.523,160 270,160 z" fill="#F0801A"/>
      <path d="M270,140 C275.523,140 280,144.477 280,150 C280,155.523 275.523,160 270,160 C264.477,160 260,155.523 260,150 C260,144.477 264.477,140 270,140 z M270,141 C265.029,141 261,145.029 261,150 C261,154.971 265.029,159 270,159 C274.971,159 279,154.971 279,150 C279,145.029 274.971,141 270,141 z" fill="#294270"/>
    </g>
    <g>
      <path d="M450,120 C444.477,120 440,115.523 440,110 C440,104.477 444.477,100 450,100 C455.523,100 460,104.477 460,110 C460,115.523 455.523,120 450,120 z" fill="#F0801A"/>
      <path d="M450,100 C455.523,100 460,104.477 460,110 C460,115.523 455.523,120 450,120 C444.477,120 440,115.523 440,110 C440,104.477 444.477,100 450,100 z M450,101 C445.029,101 441,105.029 441,110 C441,114.971 445.029,119 450,119 C454.971,119 459,114.971 459,110 C459,105.029 454.971,101 450,101 z" fill="#294270"/>
    </g>
    <g>
      <path d="M430,140 C424.477,140 420,135.523 420,130 C420,124.477 424.477,120 430,120 C435.523,120 440,124.477 440,130 C440,135.523 435.523,140 430,140 z" fill="#F0801A"/>
      <path d="M430,120 C435.523,120 440,124.477 440,130 C440,135.523 435.523,140 430,140 C424.477,140 420,135.523 420,130 C420,124.477 424.477,120 430,120 z M430,121 C425.029,121 421,125.029 421,130 C421,134.971 425.029,139 430,139 C434.971,139 439,134.971 439,130 C439,125.029 434.971,121 430,121 z" fill="#294270"/>
    </g>
    <g>
      <path d="M430,100 C424.477,100 420,95.523 420,90 C420,84.477 424.477,80 430,80 C435.523,80 440,84.477 440,90 C440,95.523 435.523,100 430,100 z" fill="#F0801A"/>
      <path d="M430,80 C435.523,80 440,84.477 440,90 C440,95.523 435.523,100 430,100 C424.477,100 420,95.523 420,90 C420,84.477 424.477,80 430,80 z M430,81 C425.029,81 421,85.029 421,90 C421,94.971 425.029,99 430,99 C434.971,99 439,94.971 439,90 C439,85.029 434.971,81 430,81 z" fill="#294270"/>
    </g>
    <g>
      <path d="M410,120 C404.477,120 400,115.523 400,110 C400,104.477 404.477,100 410,100 C415.523,100 420,104.477 420,110 C420,115.523 415.523,120 410,120 z" fill="#F0801A"/>
      <path d="M410,100 C415.523,100 420,104.477 420,110 C420,115.523 415.523,120 410,120 C404.477,120 400,115.523 400,110 C400,104.477 404.477,100 410,100 z M410,101 C405.029,101 401,105.029 401,110 C401,114.971 405.029,119 410,119 C414.971,119 419,114.971 419,110 C419,105.029 414.971,101 410,101 z" fill="#294270"/>
    </g>
    <g>
      <path d="M210,120 C204.477,120 200,115.523 200,110 C200,104.477 204.477,100 210,100 C215.523,100 220,104.477 220,110 C220,115.523 215.523,120 210,120 z" fill="#F0801A"/>
      <path d="M210,100 C215.523,100 220,104.477 220,110 C220,115.523 215.523,120 210,120 C204.477,120 200,115.523 200,110 C200,104.477 204.477,100 210,100 z M210,101 C205.029,101 201,105.029 201,110 C201,114.971 205.029,119 210,119 C214.971,119 219,114.971 219,110 C219,105.029 214.971,101 210,101 z" fill="#294270"/>
    </g>
    <g>
      <path d="M270,100 C264.477,100 260,95.523 260,90 C260,84.477 264.477,80 270,80 C275.523,80 280,84.477 280,90 C280,95.523 275.523,100 270,100 z" fill="#F0801A"/>
      <path d="M270,80 C275.523,80 280,84.477 280,90 C280,95.523 275.523,100 270,100 C264.477,100 260,95.523 260,90 C260,84.477 264.477,80 270,80 z M270,81 C265.029,81 261,85.029 261,90 C261,94.971 265.029,99 270,99 C274.971,99 279,94.971 279,90 C279,85.029 274.971,81 270,81 z" fill="#294270"/>
    </g>
    <g>
      <path d="M270,120 C264.477,120 260,115.523 260,110 C260,104.477 264.477,100 270,100 C275.523,100 280,104.477 280,110 C280,115.523 275.523,120 270,120 z" fill="#F0801A"/>
      <path d="M270,100 C275.523,100 280,104.477 280,110 C280,115.523 275.523,120 270,120 C264.477,120 260,115.523 260,110 C260,104.477 264.477,100 270,100 z M270,101 C265.029,101 261,105.029 261,110 C261,114.971 265.029,119 270,119 C274.971,119 279,114.971 279,110 C279,105.029 274.971,101 270,101 z" fill="#294270"/>
    </g>
    <g>
      <path d="M290,140 C284.477,140 280,135.523 280,130 C280,124.477 284.477,120 290,120 C295.523,120 300,124.477 300,130 C300,135.523 295.523,140 290,140 z" fill="#F0801A"/>
      <path d="M290,120 C295.523,120 300,124.477 300,130 C300,135.523 295.523,140 290,140 C284.477,140 280,135.523 280,130 C280,124.477 284.477,120 290,120 z M290,121 C285.029,121 281,125.029 281,130 C281,134.971 285.029,139 290,139 C294.971,139 299,134.971 299,130 C299,125.029 294.971,121 290,121 z" fill="#294270"/>
    </g>
    <g>
      <path d="M270,140 C264.477,140 260,135.523 260,130 C260,124.477 264.477,120 270,120 C275.523,120 280,124.477 280,130 C280,135.523 275.523,140 270,140 z" fill="#F0801A"/>
      <path d="M270,120 C275.523,120 280,124.477 280,130 C280,135.523 275.523,140 270,140 C264.477,140 260,135.523 260,130 C260,124.477 264.477,120 270,120 z M270,121 C265.029,121 261,125.029 261,130 C261,134.971 265.029,139 270,139 C274.971,139 279,134.971 279,130 C279,125.029 274.971,121 270,121 z" fill="#294270"/>
    </g>
    <g>
      <path d="M250,140 C244.477,140 240,135.523 240,130 C240,124.477 244.477,120 250,120 C255.523,120 260,124.477 260,130 C260,135.523 255.523,140 250,140 z" fill="#F0801A"/>
      <path d="M250,120 C255.523,120 260,124.477 260,130 C260,135.523 255.523,140 250,140 C244.477,140 240,135.523 240,130 C240,124.477 244.477,120 250,120 z M250,121 C245.029,121 241,125.029 241,130 C241,134.971 245.029,139 250,139 C254.971,139 259,134.971 259,130 C259,125.029 254.971,121 250,121 z" fill="#294270"/>
    </g>
    <g>
      <path d="M510,160 C504.477,160 500,155.523 500,150 C500,144.477 504.477,140 510,140 C515.523,140 520,144.477 520,150 C520,155.523 515.523,160 510,160 z" fill="#F0801A"/>
      <path d="M510,140 C515.523,140 520,144.477 520,150 C520,155.523 515.523,160 510,160 C504.477,160 500,155.523 500,150 C500,144.477 504.477,140 510,140 z M510,141 C505.029,141 501,145.029 501,150 C501,154.971 505.029,159 510,159 C514.971,159 519,154.971 519,150 C519,145.029 514.971,141 510,141 z" fill="#294270"/>
    </g>
    <g>
      <path d="M350,160 C344.477,160 340,155.523 340,150 C340,144.477 344.477,140 350,140 C355.523,140 360,144.477 360,150 C360,155.523 355.523,160 350,160 z" fill="#F0801A"/>
      <path d="M350,140 C355.523,140 360,144.477 360,150 C360,155.523 355.523,160 350,160 C344.477,160 340,155.523 340,150 C340,144.477 344.477,140 350,140 z M350,141 C345.029,141 341,145.029 341,150 C341,154.971 345.029,159 350,159 C354.971,159 359,154.971 359,150 C359,145.029 354.971,141 350,141 z" fill="#294270"/>
    </g>
    <g>
      <path d="M350,180 C344.477,180 340,175.523 340,170 C340,164.477 344.477,160 350,160 C355.523,160 360,164.477 360,170 C360,175.523 355.523,180 350,180 z" fill="#F0801A"/>
      <path d="M350,160 C355.523,160 360,164.477 360,170 C360,175.523 355.523,180 350,180 C344.477,180 340,175.523 340,170 C340,164.477 344.477,160 350,160 z M350,161 C345.029,161 341,165.029 341,170 C341,174.971 345.029,179 350,179 C354.971,179 359,174.971 359,170 C359,165.029 354.971,161 350,161 z" fill="#294270"/>
    </g>
    <g>
      <path d="M330,180 C324.477,180 320,175.523 320,170 C320,164.477 324.477,160 330,160 C335.523,160 340,164.477 340,170 C340,175.523 335.523,180 330,180 z" fill="#F0801A"/>
      <path d="M330,160 C335.523,160 340,164.477 340,170 C340,175.523 335.523,180 330,180 C324.477,180 320,175.523 320,170 C320,164.477 324.477,160 330,160 z M330,161 C325.029,161 321,165.029 321,170 C321,174.971 325.029,179 330,179 C334.971,179 339,174.971 339,170 C339,165.029 334.971,161 330,161 z" fill="#294270"/>
    </g>
    <g>
      <path d="M330,160 C324.477,160 320,155.523 320,150 C320,144.477 324.477,140 330,140 C335.523,140 340,144.477 340,150 C340,155.523 335.523,160 330,160 z" fill="#F0801A"/>
      <path d="M330,140 C335.523,140 340,144.477 340,150 C340,155.523 335.523,160 330,160 C324.477,160 320,155.523 320,150 C320,144.477 324.477,140 330,140 z M330,141 C325.029,141 321,145.029 321,150 C321,154.971 325.029,159 330,159 C334.971,159 339,154.971 339,150 C339,145.029 334.971,141 330,141 z" fill="#294270"/>
    </g>
    <g>
      <path d="M510,80 C504.477,80 500,75.523 500,70 C500,64.477 504.477,60 510,60 C515.523,60 520,64.477 520,70 C520,75.523 515.523,80 510,80 z" fill="#F0801A"/>
      <path d="M510,60 C515.523,60 520,64.477 520,70 C520,75.523 515.523,80 510,80 C504.477,80 500,75.523 500,70 C500,64.477 504.477,60 510,60 z M510,61 C505.029,61 501,65.029 501,70 C501,74.971 505.029,79 510,79 C514.971,79 519,74.971 519,70 C519,65.029 514.971,61 510,61 z" fill="#294270"/>
    </g>
    <g>
      <path d="M510,100 C504.477,100 500,95.523 500,90 C500,84.477 504.477,80 510,80 C515.523,80 520,84.477 520,90 C520,95.523 515.523,100 510,100 z" fill="#F0801A"/>
      <path d="M510,80 C515.523,80 520,84.477 520,90 C520,95.523 515.523,100 510,100 C504.477,100 500,95.523 500,90 C500,84.477 504.477,80 510,80 z M510,81 C505.029,81 501,85.029 501,90 C501,94.971 505.029,99 510,99 C514.971,99 519,94.971 519,90 C519,85.029 514.971,81 510,81 z" fill="#294270"/>
    </g>
    <g>
      <path d="M510,120 C504.477,120 500,115.523 500,110 C500,104.477 504.477,100 510,100 C515.523,100 520,104.477 520,110 C520,115.523 515.523,120 510,120 z" fill="#F0801A"/>
      <path d="M510,100 C515.523,100 520,104.477 520,110 C520,115.523 515.523,120 510,120 C504.477,120 500,115.523 500,110 C500,104.477 504.477,100 510,100 z M510,101 C505.029,101 501,105.029 501,110 C501,114.971 505.029,119 510,119 C514.971,119 519,114.971 519,110 C519,105.029 514.971,101 510,101 z" fill="#294270"/>
    </g>
    <g>
      <path d="M510,140 C504.477,140 500,135.523 500,130 C500,124.477 504.477,120 510,120 C515.523,120 520,124.477 520,130 C520,135.523 515.523,140 510,140 z" fill="#F0801A"/>
      <path d="M510,120 C515.523,120 520,124.477 520,130 C520,135.523 515.523,140 510,140 C504.477,140 500,135.523 500,130 C500,124.477 504.477,120 510,120 z M510,121 C505.029,121 501,125.029 501,130 C501,134.971 505.029,139 510,139 C514.971,139 519,134.971 519,130 C519,125.029 514.971,121 510,121 z" fill="#294270"/>
    </g>
    <g>
      <path d="M310,60 C304.477,60 300,55.523 300,50 C300,44.477 304.477,40 310,40 C315.523,40 320,44.477 320,50 C320,55.523 315.523,60 310,60 z" fill="#F0801A"/>
      <path d="M310,40 C315.523,40 320,44.477 320,50 C320,55.523 315.523,60 310,60 C304.477,60 300,55.523 300,50 C300,44.477 304.477,40 310,40 z M310,41 C305.029,41 301,45.029 301,50 C301,54.971 305.029,59 310,59 C314.971,59 319,54.971 319,50 C319,45.029 314.971,41 310,41 z" fill="#294270"/>
    </g>
    <g>
      <path d="M450,100 C444.477,100 440,95.523 440,90 C440,84.477 444.477,80 450,80 C455.523,80 460,84.477 460,90 C460,95.523 455.523,100 450,100 z" fill="#F0801A"/>
      <path d="M450,80 C455.523,80 460,84.477 460,90 C460,95.523 455.523,100 450,100 C444.477,100 440,95.523 440,90 C440,84.477 444.477,80 450,80 z M450,81 C445.029,81 441,85.029 441,90 C441,94.971 445.029,99 450,99 C454.971,99 459,94.971 459,90 C459,85.029 454.971,81 450,81 z" fill="#294270"/>
    </g>
    <g>
      <path d="M450,140 C444.477,140 440,135.523 440,130 C440,124.477 444.477,120 450,120 C455.523,120 460,124.477 460,130 C460,135.523 455.523,140 450,140 z" fill="#F0801A"/>
      <path d="M450,120 C455.523,120 460,124.477 460,130 C460,135.523 455.523,140 450,140 C444.477,140 440,135.523 440,130 C440,124.477 444.477,120 450,120 z M450,121 C445.029,121 441,125.029 441,130 C441,134.971 445.029,139 450,139 C454.971,139 459,134.971 459,130 C459,125.029 454.971,121 450,121 z" fill="#294270"/>
    </g>
    <g>
      <path d="M410,140 C404.477,140 400,135.523 400,130 C400,124.477 404.477,120 410,120 C415.523,120 420,124.477 420,130 C420,135.523 415.523,140 410,140 z" fill="#F0801A"/>
      <path d="M410,120 C415.523,120 420,124.477 420,130 C420,135.523 415.523,140 410,140 C404.477,140 400,135.523 400,130 C400,124.477 404.477,120 410,120 z M410,121 C405.029,121 401,125.029 401,130 C401,134.971 405.029,139 410,139 C414.971,139 419,134.971 419,130 C419,125.029 414.971,121 410,121 z" fill="#294270"/>
    </g>
    <g>
      <path d="M270,60 C264.477,60 260,55.523 260,50 C260,44.477 264.477,40 270,40 C275.523,40 280,44.477 280,50 C280,55.523 275.523,60 270,60 z" fill="#F0801A"/>
      <path d="M270,40 C275.523,40 280,44.477 280,50 C280,55.523 275.523,60 270,60 C264.477,60 260,55.523 260,50 C260,44.477 264.477,40 270,40 z M270,41 C265.029,41 261,45.029 261,50 C261,54.971 265.029,59 270,59 C274.971,59 279,54.971 279,50 C279,45.029 274.971,41 270,41 z" fill="#294270"/>
    </g>
    <g>
      <path d="M290,60 C284.477,60 280,55.523 280,50 C280,44.477 284.477,40 290,40 C295.523,40 300,44.477 300,50 C300,55.523 295.523,60 290,60 z" fill="#F0801A"/>
      <path d="M290,40 C295.523,40 300,44.477 300,50 C300,55.523 295.523,60 290,60 C284.477,60 280,55.523 280,50 C280,44.477 284.477,40 290,40 z M290,41 C285.029,41 281,45.029 281,50 C281,54.971 285.029,59 290,59 C294.971,59 299,54.971 299,50 C299,45.029 294.971,41 290,41 z" fill="#294270"/>
    </g>
    <g>
      <path d="M290,40 C284.477,40 280,35.523 280,30 C280,24.477 284.477,20 290,20 C295.523,20 300,24.477 300,30 C300,35.523 295.523,40 290,40 z" fill="#F0801A"/>
      <path d="M290,20 C295.523,20 300,24.477 300,30 C300,35.523 295.523,40 290,40 C284.477,40 280,35.523 280,30 C280,24.477 284.477,20 290,20 z M290,21 C285.029,21 281,25.029 281,30 C281,34.971 285.029,39 290,39 C294.971,39 299,34.971 299,30 C299,25.029 294.971,21 290,21 z" fill="#294270"/>
    </g>
  </g>
</svg>
