<?xml version="1.0" encoding="UTF-8"?>
<!DOCTYPE svg PUBLIC "-//W3C//DTD SVG 1.1//EN" "http://www.w3.org/Graphics/SVG/1.1/DTD/svg11.dtd">
<svg version="1.1" xmlns="http://www.w3.org/2000/svg" xmlns:xlink="http://www.w3.org/1999/xlink" x="0" y="0" width="500" height="180" viewBox="0, 0, 500, 180">
  <g id="Layer_1">
    <path d="M70,60 z" fill="#8FC7ED"/>
    <g>
      <path d="M40.5,40.5 L60.5,40.5 L60.5,60.5 L40.5,60.5 L40.5,40.5 z" fill="#8FC7ED"/>
      <path d="M40.5,40.5 L60.5,40.5 L60.5,60.5 L40.5,60.5 L40.5,40.5 z" fill-opacity="0" stroke="#294270" stroke-width="1"/>
    </g>
    <g>
      <path d="M60.5,40.5 L80.5,40.5 L80.5,60.5 L60.5,60.5 L60.5,40.5 z" fill="#8FC7ED"/>
      <path d="M60.5,40.5 L80.5,40.5 L80.5,60.5 L60.5,60.5 L60.5,40.5 z" fill-opacity="0" stroke="#294270" stroke-width="1"/>
    </g>
    <path d="M110,60 z" fill="#8FC7ED"/>
    <g>
      <path d="M80.5,40.5 L100.5,40.5 L100.5,60.5 L80.5,60.5 L80.5,40.5 z" fill="#8FC7ED"/>
      <path d="M80.5,40.5 L100.5,40.5 L100.5,60.5 L80.5,60.5 L80.5,40.5 z" fill-opacity="0" stroke="#294270" stroke-width="1"/>
    </g>
    <g>
      <path d="M100.5,40.5 L120.5,40.5 L120.5,60.5 L100.5,60.5 L100.5,40.5 z" fill="#8FC7ED"/>
      <path d="M100.5,40.5 L120.5,40.5 L120.5,60.5 L100.5,60.5 L100.5,40.5 z" fill-opacity="0" stroke="#294270" stroke-width="1"/>
    </g>
    <path d="M70,80 z" fill="#8FC7ED"/>
    <g>
      <path d="M40.5,60.5 L60.5,60.5 L60.5,80.5 L40.5,80.5 L40.5,60.5 z" fill="#8FC7ED"/>
      <path d="M40.5,60.5 L60.5,60.5 L60.5,80.5 L40.5,80.5 L40.5,60.5 z" fill-opacity="0" stroke="#294270" stroke-width="1"/>
    </g>
    <g>
      <path d="M60.5,60.5 L80.5,60.5 L80.5,80.5 L60.5,80.5 L60.5,60.5 z" fill="#8FC7ED"/>
      <path d="M60.5,60.5 L80.5,60.5 L80.5,80.5 L60.5,80.5 L60.5,60.5 z" fill-opacity="0" stroke="#294270" stroke-width="1"/>
    </g>
    <path d="M110,80 z" fill="#8FC7ED"/>
    <g>
      <path d="M80.5,60.5 L100.5,60.5 L100.5,80.5 L80.5,80.5 L80.5,60.5 z" fill="#8FC7ED"/>
      <path d="M80.5,60.5 L100.5,60.5 L100.5,80.5 L80.5,80.5 L80.5,60.5 z" fill-opacity="0" stroke="#294270" stroke-width="1"/>
    </g>
    <g>
      <path d="M100.5,60.5 L120.5,60.5 L120.5,80.5 L100.5,80.5 L100.5,60.5 z" fill="#8FC7ED"/>
      <path d="M100.5,60.5 L120.5,60.5 L120.5,80.5 L100.5,80.5 L100.5,60.5 z" fill-opacity="0" stroke="#294270" stroke-width="1"/>
    </g>
    <path d="M70,100 z" fill="#8FC7ED"/>
    <g>
      <path d="M40.5,80.5 L60.5,80.5 L60.5,100.5 L40.5,100.5 L40.5,80.5 z" fill="#8FC7ED"/>
      <path d="M40.5,80.5 L60.5,80.5 L60.5,100.5 L40.5,100.5 L40.5,80.5 z" fill-opacity="0" stroke="#294270" stroke-width="1"/>
    </g>
    <g>
      <path d="M60.5,80.5 L80.5,80.5 L80.5,100.5 L60.5,100.5 L60.5,80.5 z" fill="#8FC7ED"/>
      <path d="M60.5,80.5 L80.5,80.5 L80.5,100.5 L60.5,100.5 L60.5,80.5 z" fill-opacity="0" stroke="#294270" stroke-width="1"/>
    </g>
    <path d="M110,100 z" fill="#8FC7ED"/>
    <g>
      <path d="M80.5,80.5 L100.5,80.5 L100.5,100.5 L80.5,100.5 L80.5,80.5 z" fill="#8FC7ED"/>
      <path d="M80.5,80.5 L100.5,80.5 L100.5,100.5 L80.5,100.5 L80.5,80.5 z" fill-opacity="0" stroke="#294270" stroke-width="1"/>
    </g>
    <g>
      <path d="M100.5,80.5 L120.5,80.5 L120.5,100.5 L100.5,100.5 L100.5,80.5 z" fill="#8FC7ED"/>
      <path d="M100.5,80.5 L120.5,80.5 L120.5,100.5 L100.5,100.5 L100.5,80.5 z" fill-opacity="0" stroke="#294270" stroke-width="1"/>
    </g>
    <path d="M70,120 z" fill="#8FC7ED"/>
    <g>
      <path d="M40.5,100.5 L60.5,100.5 L60.5,120.5 L40.5,120.5 L40.5,100.5 z" fill="#8FC7ED"/>
      <path d="M40.5,100.5 L60.5,100.5 L60.5,120.5 L40.5,120.5 L40.5,100.5 z" fill-opacity="0" stroke="#294270" stroke-width="1"/>
    </g>
    <g>
      <path d="M60.5,100.5 L80.5,100.5 L80.5,120.5 L60.5,120.5 L60.5,100.5 z" fill="#8FC7ED"/>
      <path d="M60.5,100.5 L80.5,100.5 L80.5,120.5 L60.5,120.5 L60.5,100.5 z" fill-opacity="0" stroke="#294270" stroke-width="1"/>
    </g>
    <path d="M110,120 z" fill="#8FC7ED"/>
    <g>
      <path d="M80.5,100.5 L100.5,100.5 L100.5,120.5 L80.5,120.5 L80.5,100.5 z" fill="#8FC7ED"/>
      <path d="M80.5,100.5 L100.5,100.5 L100.5,120.5 L80.5,120.5 L80.5,100.5 z" fill-opacity="0" stroke="#294270" stroke-width="1"/>
    </g>
    <g>
      <path d="M100.5,100.5 L120.5,100.5 L120.5,120.5 L100.5,120.5 L100.5,100.5 z" fill="#8FC7ED"/>
      <path d="M100.5,100.5 L120.5,100.5 L120.5,120.5 L100.5,120.5 L100.5,100.5 z" fill-opacity="0" stroke="#294270" stroke-width="1"/>
    </g>
    <g>
      <path d="M120.5,40.5 L140.5,40.5 L140.5,60.5 L120.5,60.5 L120.5,40.5 z" fill="#8FC7ED"/>
      <path d="M120.5,40.5 L140.5,40.5 L140.5,60.5 L120.5,60.5 L120.5,40.5 z" fill-opacity="0" stroke="#294270" stroke-width="1"/>
    </g>
    <g>
      <path d="M120.5,60.5 L140.5,60.5 L140.5,80.5 L120.5,80.5 L120.5,60.5 z" fill="#8FC7ED"/>
      <path d="M120.5,60.5 L140.5,60.5 L140.5,80.5 L120.5,80.5 L120.5,60.5 z" fill-opacity="0" stroke="#294270" stroke-width="1"/>
    </g>
    <g>
      <path d="M120.5,80.5 L140.5,80.5 L140.5,100.5 L120.5,100.5 L120.5,80.5 z" fill="#8FC7ED"/>
      <path d="M120.5,80.5 L140.5,80.5 L140.5,100.5 L120.5,100.5 L120.5,80.5 z" fill-opacity="0" stroke="#294270" stroke-width="1"/>
    </g>
    <g>
      <path d="M120.5,100.5 L140.5,100.5 L140.5,120.5 L120.5,120.5 L120.5,100.5 z" fill="#8FC7ED"/>
      <path d="M120.5,100.5 L140.5,100.5 L140.5,120.5 L120.5,120.5 L120.5,100.5 z" fill-opacity="0" stroke="#294270" stroke-width="1"/>
    </g>
    <path d="M70,140 z" fill="#8FC7ED"/>
    <g>
      <path d="M40.5,120.5 L60.5,120.5 L60.5,140.5 L40.5,140.5 L40.5,120.5 z" fill="#8FC7ED"/>
      <path d="M40.5,120.5 L60.5,120.5 L60.5,140.5 L40.5,140.5 L40.5,120.5 z" fill-opacity="0" stroke="#294270" stroke-width="1"/>
    </g>
    <g>
      <path d="M60.5,120.5 L80.5,120.5 L80.5,140.5 L60.5,140.5 L60.5,120.5 z" fill="#8FC7ED"/>
      <path d="M60.5,120.5 L80.5,120.5 L80.5,140.5 L60.5,140.5 L60.5,120.5 z" fill-opacity="0" stroke="#294270" stroke-width="1"/>
    </g>
    <path d="M110,140 z" fill="#8FC7ED"/>
    <g>
      <path d="M80.5,120.5 L100.5,120.5 L100.5,140.5 L80.5,140.5 L80.5,120.5 z" fill="#8FC7ED"/>
      <path d="M80.5,120.5 L100.5,120.5 L100.5,140.5 L80.5,140.5 L80.5,120.5 z" fill-opacity="0" stroke="#294270" stroke-width="1"/>
    </g>
    <g>
      <path d="M100.5,120.5 L120.5,120.5 L120.5,140.5 L100.5,140.5 L100.5,120.5 z" fill="#8FC7ED"/>
      <path d="M100.5,120.5 L120.5,120.5 L120.5,140.5 L100.5,140.5 L100.5,120.5 z" fill-opacity="0" stroke="#294270" stroke-width="1"/>
    </g>
    <g>
      <path d="M120.5,120.5 L140.5,120.5 L140.5,140.5 L120.5,140.5 L120.5,120.5 z" fill="#8FC7ED"/>
      <path d="M120.5,120.5 L140.5,120.5 L140.5,140.5 L120.5,140.5 L120.5,120.5 z" fill-opacity="0" stroke="#294270" stroke-width="1"/>
    </g>
    <path d="M70,100 C64.477,100 60,95.523 60,90 C60,84.477 64.477,80 70,80 C75.523,80 80,84.477 80,90 C80,95.523 75.523,100 70,100 z" fill="#294270"/>
    <path d="M90,80 C84.477,80 80,75.523 80,70 C80,64.477 84.477,60 90,60 C95.523,60 100,64.477 100,70 C100,75.523 95.523,80 90,80 z" fill="#294270"/>
    <path d="M90,100 C84.477,100 80,95.523 80,90 C80,84.477 84.477,80 90,80 C95.523,80 100,84.477 100,90 C100,95.523 95.523,100 90,100 z" fill="#294270"/>
    <path d="M110,100 C104.477,100 100,95.523 100,90 C100,84.477 104.477,80 110,80 C115.523,80 120,84.477 120,90 C120,95.523 115.523,100 110,100 z" fill="#294270"/>
    <path d="M90,120 C84.477,120 80,115.523 80,110 C80,104.477 84.477,100 90,100 C95.523,100 100,104.477 100,110 C100,115.523 95.523,120 90,120 z" fill="#294270"/>
    <path d="M210,60 z" fill="#8FC7ED"/>
    <g>
      <path d="M180.5,40.5 L200.5,40.5 L200.5,60.5 L180.5,60.5 L180.5,40.5 z" fill="#8FC7ED"/>
      <path d="M180.5,40.5 L200.5,40.5 L200.5,60.5 L180.5,60.5 L180.5,40.5 z" fill-opacity="0" stroke="#294270" stroke-width="1"/>
    </g>
    <g>
      <path d="M200.5,40.5 L220.5,40.5 L220.5,60.5 L200.5,60.5 L200.5,40.5 z" fill="#8FC7ED"/>
      <path d="M200.5,40.5 L220.5,40.5 L220.5,60.5 L200.5,60.5 L200.5,40.5 z" fill-opacity="0" stroke="#294270" stroke-width="1"/>
    </g>
    <path d="M250,60 z" fill="#8FC7ED"/>
    <g>
      <path d="M220.5,40.5 L240.5,40.5 L240.5,60.5 L220.5,60.5 L220.5,40.5 z" fill="#8FC7ED"/>
      <path d="M220.5,40.5 L240.5,40.5 L240.5,60.5 L220.5,60.5 L220.5,40.5 z" fill-opacity="0" stroke="#294270" stroke-width="1"/>
    </g>
    <g>
      <path d="M240.5,40.5 L260.5,40.5 L260.5,60.5 L240.5,60.5 L240.5,40.5 z" fill="#8FC7ED"/>
      <path d="M240.5,40.5 L260.5,40.5 L260.5,60.5 L240.5,60.5 L240.5,40.5 z" fill-opacity="0" stroke="#294270" stroke-width="1"/>
    </g>
    <path d="M210,80 z" fill="#8FC7ED"/>
    <g>
      <path d="M180.5,60.5 L200.5,60.5 L200.5,80.5 L180.5,80.5 L180.5,60.5 z" fill="#8FC7ED"/>
      <path d="M180.5,60.5 L200.5,60.5 L200.5,80.5 L180.5,80.5 L180.5,60.5 z" fill-opacity="0" stroke="#294270" stroke-width="1"/>
    </g>
    <g>
      <path d="M200.5,60.5 L220.5,60.5 L220.5,80.5 L200.5,80.5 L200.5,60.5 z" fill="#8FC7ED"/>
      <path d="M200.5,60.5 L220.5,60.5 L220.5,80.5 L200.5,80.5 L200.5,60.5 z" fill-opacity="0" stroke="#294270" stroke-width="1"/>
    </g>
    <path d="M250,80 z" fill="#8FC7ED"/>
    <g>
      <path d="M220.5,60.5 L240.5,60.5 L240.5,80.5 L220.5,80.5 L220.5,60.5 z" fill="#8FC7ED"/>
      <path d="M220.5,60.5 L240.5,60.5 L240.5,80.5 L220.5,80.5 L220.5,60.5 z" fill-opacity="0" stroke="#294270" stroke-width="1"/>
    </g>
    <g>
      <path d="M240.5,60.5 L260.5,60.5 L260.5,80.5 L240.5,80.5 L240.5,60.5 z" fill="#8FC7ED"/>
      <path d="M240.5,60.5 L260.5,60.5 L260.5,80.5 L240.5,80.5 L240.5,60.5 z" fill-opacity="0" stroke="#294270" stroke-width="1"/>
    </g>
    <path d="M210,100 z" fill="#8FC7ED"/>
    <g>
      <path d="M180.5,80.5 L200.5,80.5 L200.5,100.5 L180.5,100.5 L180.5,80.5 z" fill="#8FC7ED"/>
      <path d="M180.5,80.5 L200.5,80.5 L200.5,100.5 L180.5,100.5 L180.5,80.5 z" fill-opacity="0" stroke="#294270" stroke-width="1"/>
    </g>
    <g>
      <path d="M200.5,80.5 L220.5,80.5 L220.5,100.5 L200.5,100.5 L200.5,80.5 z" fill="#8FC7ED"/>
      <path d="M200.5,80.5 L220.5,80.5 L220.5,100.5 L200.5,100.5 L200.5,80.5 z" fill-opacity="0" stroke="#294270" stroke-width="1"/>
    </g>
    <path d="M250,100 z" fill="#8FC7ED"/>
    <g>
      <path d="M220.5,80.5 L240.5,80.5 L240.5,100.5 L220.5,100.5 L220.5,80.5 z" fill="#8FC7ED"/>
      <path d="M220.5,80.5 L240.5,80.5 L240.5,100.5 L220.5,100.5 L220.5,80.5 z" fill-opacity="0" stroke="#294270" stroke-width="1"/>
    </g>
    <g>
      <path d="M240.5,80.5 L260.5,80.5 L260.5,100.5 L240.5,100.5 L240.5,80.5 z" fill="#8FC7ED"/>
      <path d="M240.5,80.5 L260.5,80.5 L260.5,100.5 L240.5,100.5 L240.5,80.5 z" fill-opacity="0" stroke="#294270" stroke-width="1"/>
    </g>
    <path d="M210,120 z" fill="#8FC7ED"/>
    <g>
      <path d="M180.5,100.5 L200.5,100.5 L200.5,120.5 L180.5,120.5 L180.5,100.5 z" fill="#8FC7ED"/>
      <path d="M180.5,100.5 L200.5,100.5 L200.5,120.5 L180.5,120.5 L180.5,100.5 z" fill-opacity="0" stroke="#294270" stroke-width="1"/>
    </g>
    <g>
      <path d="M200.5,100.5 L220.5,100.5 L220.5,120.5 L200.5,120.5 L200.5,100.5 z" fill="#8FC7ED"/>
      <path d="M200.5,100.5 L220.5,100.5 L220.5,120.5 L200.5,120.5 L200.5,100.5 z" fill-opacity="0" stroke="#294270" stroke-width="1"/>
    </g>
    <path d="M250,120 z" fill="#8FC7ED"/>
    <g>
      <path d="M220.5,100.5 L240.5,100.5 L240.5,120.5 L220.5,120.5 L220.5,100.5 z" fill="#8FC7ED"/>
      <path d="M220.5,100.5 L240.5,100.5 L240.5,120.5 L220.5,120.5 L220.5,100.5 z" fill-opacity="0" stroke="#294270" stroke-width="1"/>
    </g>
    <g>
      <path d="M240.5,100.5 L260.5,100.5 L260.5,120.5 L240.5,120.5 L240.5,100.5 z" fill="#8FC7ED"/>
      <path d="M240.5,100.5 L260.5,100.5 L260.5,120.5 L240.5,120.5 L240.5,100.5 z" fill-opacity="0" stroke="#294270" stroke-width="1"/>
    </g>
    <g>
      <path d="M260.5,40.5 L280.5,40.5 L280.5,60.5 L260.5,60.5 L260.5,40.5 z" fill="#8FC7ED"/>
      <path d="M260.5,40.5 L280.5,40.5 L280.5,60.5 L260.5,60.5 L260.5,40.5 z" fill-opacity="0" stroke="#294270" stroke-width="1"/>
    </g>
    <g>
      <path d="M260.5,60.5 L280.5,60.5 L280.5,80.5 L260.5,80.5 L260.5,60.5 z" fill="#8FC7ED"/>
      <path d="M260.5,60.5 L280.5,60.5 L280.5,80.5 L260.5,80.5 L260.5,60.5 z" fill-opacity="0" stroke="#294270" stroke-width="1"/>
    </g>
    <g>
      <path d="M260.5,80.5 L280.5,80.5 L280.5,100.5 L260.5,100.5 L260.5,80.5 z" fill="#8FC7ED"/>
      <path d="M260.5,80.5 L280.5,80.5 L280.5,100.5 L260.5,100.5 L260.5,80.5 z" fill-opacity="0" stroke="#294270" stroke-width="1"/>
    </g>
    <g>
      <path d="M260.5,100.5 L280.5,100.5 L280.5,120.5 L260.5,120.5 L260.5,100.5 z" fill="#8FC7ED"/>
      <path d="M260.5,100.5 L280.5,100.5 L280.5,120.5 L260.5,120.5 L260.5,100.5 z" fill-opacity="0" stroke="#294270" stroke-width="1"/>
    </g>
    <path d="M210,140 z" fill="#8FC7ED"/>
    <g>
      <path d="M180.5,120.5 L200.5,120.5 L200.5,140.5 L180.5,140.5 L180.5,120.5 z" fill="#8FC7ED"/>
      <path d="M180.5,120.5 L200.5,120.5 L200.5,140.5 L180.5,140.5 L180.5,120.5 z" fill-opacity="0" stroke="#294270" stroke-width="1"/>
    </g>
    <g>
      <path d="M200.5,120.5 L220.5,120.5 L220.5,140.5 L200.5,140.5 L200.5,120.5 z" fill="#8FC7ED"/>
      <path d="M200.5,120.5 L220.5,120.5 L220.5,140.5 L200.5,140.5 L200.5,120.5 z" fill-opacity="0" stroke="#294270" stroke-width="1"/>
    </g>
    <path d="M250,140 z" fill="#8FC7ED"/>
    <g>
      <path d="M220.5,120.5 L240.5,120.5 L240.5,140.5 L220.5,140.5 L220.5,120.5 z" fill="#8FC7ED"/>
      <path d="M220.5,120.5 L240.5,120.5 L240.5,140.5 L220.5,140.5 L220.5,120.5 z" fill-opacity="0" stroke="#294270" stroke-width="1"/>
    </g>
    <g>
      <path d="M240.5,120.5 L260.5,120.5 L260.5,140.5 L240.5,140.5 L240.5,120.5 z" fill="#8FC7ED"/>
      <path d="M240.5,120.5 L260.5,120.5 L260.5,140.5 L240.5,140.5 L240.5,120.5 z" fill-opacity="0" stroke="#294270" stroke-width="1"/>
    </g>
    <g>
      <path d="M260.5,120.5 L280.5,120.5 L280.5,140.5 L260.5,140.5 L260.5,120.5 z" fill="#8FC7ED"/>
      <path d="M260.5,120.5 L280.5,120.5 L280.5,140.5 L260.5,140.5 L260.5,120.5 z" fill-opacity="0" stroke="#294270" stroke-width="1"/>
    </g>
    <path d="M210,100 C204.477,100 200,95.523 200,90 C200,84.477 204.477,80 210,80 C215.523,80 220,84.477 220,90 C220,95.523 215.523,100 210,100 z" fill="#294270"/>
    <path d="M230,80 C224.477,80 220,75.523 220,70 C220,64.477 224.477,60 230,60 C235.523,60 240,64.477 240,70 C240,75.523 235.523,80 230,80 z" fill="#294270"/>
    <path d="M230,100 C224.477,100 220,95.523 220,90 C220,84.477 224.477,80 230,80 C235.523,80 240,84.477 240,90 C240,95.523 235.523,100 230,100 z" fill="#294270"/>
    <path d="M250,100 C244.477,100 240,95.523 240,90 C240,84.477 244.477,80 250,80 C255.523,80 260,84.477 260,90 C260,95.523 255.523,100 250,100 z" fill="#294270"/>
    <path d="M230,120 C224.477,120 220,115.523 220,110 C220,104.477 224.477,100 230,100 C235.523,100 240,104.477 240,110 C240,115.523 235.523,120 230,120 z" fill="#294270"/>
    <path d="M230,140 C224.477,140 220,135.523 220,130 C220,124.477 224.477,120 230,120 C235.523,120 240,124.477 240,130 C240,135.523 235.523,140 230,140 z" fill="#294270"/>
    <path d="M210,120 C204.477,120 200,115.523 200,110 C200,104.477 204.477,100 210,100 C215.523,100 220,104.477 220,110 C220,115.523 215.523,120 210,120 z" fill="#294270"/>
    <path d="M190,100 C184.477,100 180,95.523 180,90 C180,84.477 184.477,80 190,80 C195.523,80 200,84.477 200,90 C200,95.523 195.523,100 190,100 z" fill="#294270"/>
    <path d="M210,80 C204.477,80 200,75.523 200,70 C200,64.477 204.477,60 210,60 C215.523,60 220,64.477 220,70 C220,75.523 215.523,80 210,80 z" fill="#294270"/>
    <path d="M230,60 C224.477,60 220,55.523 220,50 C220,44.477 224.477,40 230,40 C235.523,40 240,44.477 240,50 C240,55.523 235.523,60 230,60 z" fill="#294270"/>
    <path d="M270,100 C264.477,100 260,95.523 260,90 C260,84.477 264.477,80 270,80 C275.523,80 280,84.477 280,90 C280,95.523 275.523,100 270,100 z" fill="#294270"/>
    <path d="M250,80 C244.477,80 240,75.523 240,70 C240,64.477 244.477,60 250,60 C255.523,60 260,64.477 260,70 C260,75.523 255.523,80 250,80 z" fill="#294270"/>
    <path d="M250,120 C244.477,120 240,115.523 240,110 C240,104.477 244.477,100 250,100 C255.523,100 260,104.477 260,110 C260,115.523 255.523,120 250,120 z" fill="#294270"/>
    <path d="M350,40 z" fill="#8FC7ED"/>
    <g>
      <path d="M320.5,20.5 L340.5,20.5 L340.5,40.5 L320.5,40.5 L320.5,20.5 z" fill="#8FC7ED"/>
      <path d="M320.5,20.5 L340.5,20.5 L340.5,40.5 L320.5,40.5 L320.5,20.5 z" fill-opacity="0" stroke="#294270" stroke-width="1"/>
    </g>
    <g>
      <path d="M340.5,20.5 L360.5,20.5 L360.5,40.5 L340.5,40.5 L340.5,20.5 z" fill="#8FC7ED"/>
      <path d="M340.5,20.5 L360.5,20.5 L360.5,40.5 L340.5,40.5 L340.5,20.5 z" fill-opacity="0" stroke="#294270" stroke-width="1"/>
    </g>
    <path d="M390,40 z" fill="#8FC7ED"/>
    <g>
      <path d="M360.5,20.5 L380.5,20.5 L380.5,40.5 L360.5,40.5 L360.5,20.5 z" fill="#8FC7ED"/>
      <path d="M360.5,20.5 L380.5,20.5 L380.5,40.5 L360.5,40.5 L360.5,20.5 z" fill-opacity="0" stroke="#294270" stroke-width="1"/>
    </g>
    <g>
      <path d="M380.5,20.5 L400.5,20.5 L400.5,40.5 L380.5,40.5 L380.5,20.5 z" fill="#8FC7ED"/>
      <path d="M380.5,20.5 L400.5,20.5 L400.5,40.5 L380.5,40.5 L380.5,20.5 z" fill-opacity="0" stroke="#294270" stroke-width="1"/>
    </g>
    <path d="M350,60 z" fill="#8FC7ED"/>
    <g>
      <path d="M320.5,40.5 L340.5,40.5 L340.5,60.5 L320.5,60.5 L320.5,40.5 z" fill="#8FC7ED"/>
      <path d="M320.5,40.5 L340.5,40.5 L340.5,60.5 L320.5,60.5 L320.5,40.5 z" fill-opacity="0" stroke="#294270" stroke-width="1"/>
    </g>
    <g>
      <path d="M340.5,40.5 L360.5,40.5 L360.5,60.5 L340.5,60.5 L340.5,40.5 z" fill="#8FC7ED"/>
      <path d="M340.5,40.5 L360.5,40.5 L360.5,60.5 L340.5,60.5 L340.5,40.5 z" fill-opacity="0" stroke="#294270" stroke-width="1"/>
    </g>
    <path d="M390,60 z" fill="#8FC7ED"/>
    <g>
      <path d="M360.5,40.5 L380.5,40.5 L380.5,60.5 L360.5,60.5 L360.5,40.5 z" fill="#8FC7ED"/>
      <path d="M360.5,40.5 L380.5,40.5 L380.5,60.5 L360.5,60.5 L360.5,40.5 z" fill-opacity="0" stroke="#294270" stroke-width="1"/>
    </g>
    <g>
      <path d="M380.5,40.5 L400.5,40.5 L400.5,60.5 L380.5,60.5 L380.5,40.5 z" fill="#8FC7ED"/>
      <path d="M380.5,40.5 L400.5,40.5 L400.5,60.5 L380.5,60.5 L380.5,40.5 z" fill-opacity="0" stroke="#294270" stroke-width="1"/>
    </g>
    <path d="M350,80 z" fill="#8FC7ED"/>
    <g>
      <path d="M320.5,60.5 L340.5,60.5 L340.5,80.5 L320.5,80.5 L320.5,60.5 z" fill="#8FC7ED"/>
      <path d="M320.5,60.5 L340.5,60.5 L340.5,80.5 L320.5,80.5 L320.5,60.5 z" fill-opacity="0" stroke="#294270" stroke-width="1"/>
    </g>
    <g>
      <path d="M340.5,60.5 L360.5,60.5 L360.5,80.5 L340.5,80.5 L340.5,60.5 z" fill="#8FC7ED"/>
      <path d="M340.5,60.5 L360.5,60.5 L360.5,80.5 L340.5,80.5 L340.5,60.5 z" fill-opacity="0" stroke="#294270" stroke-width="1"/>
    </g>
    <path d="M390,80 z" fill="#8FC7ED"/>
    <g>
      <path d="M360.5,60.5 L380.5,60.5 L380.5,80.5 L360.5,80.5 L360.5,60.5 z" fill="#8FC7ED"/>
      <path d="M360.5,60.5 L380.5,60.5 L380.5,80.5 L360.5,80.5 L360.5,60.5 z" fill-opacity="0" stroke="#294270" stroke-width="1"/>
    </g>
    <g>
      <path d="M380.5,60.5 L400.5,60.5 L400.5,80.5 L380.5,80.5 L380.5,60.5 z" fill="#8FC7ED"/>
      <path d="M380.5,60.5 L400.5,60.5 L400.5,80.5 L380.5,80.5 L380.5,60.5 z" fill-opacity="0" stroke="#294270" stroke-width="1"/>
    </g>
    <path d="M350,100 z" fill="#8FC7ED"/>
    <g>
      <path d="M320.5,80.5 L340.5,80.5 L340.5,100.5 L320.5,100.5 L320.5,80.5 z" fill="#8FC7ED"/>
      <path d="M320.5,80.5 L340.5,80.5 L340.5,100.5 L320.5,100.5 L320.5,80.5 z" fill-opacity="0" stroke="#294270" stroke-width="1"/>
    </g>
    <g>
      <path d="M340.5,80.5 L360.5,80.5 L360.5,100.5 L340.5,100.5 L340.5,80.5 z" fill="#8FC7ED"/>
      <path d="M340.5,80.5 L360.5,80.5 L360.5,100.5 L340.5,100.5 L340.5,80.5 z" fill-opacity="0" stroke="#294270" stroke-width="1"/>
    </g>
    <path d="M390,100 z" fill="#8FC7ED"/>
    <g>
      <path d="M360.5,80.5 L380.5,80.5 L380.5,100.5 L360.5,100.5 L360.5,80.5 z" fill="#8FC7ED"/>
      <path d="M360.5,80.5 L380.5,80.5 L380.5,100.5 L360.5,100.5 L360.5,80.5 z" fill-opacity="0" stroke="#294270" stroke-width="1"/>
    </g>
    <g>
      <path d="M380.5,80.5 L400.5,80.5 L400.5,100.5 L380.5,100.5 L380.5,80.5 z" fill="#8FC7ED"/>
      <path d="M380.5,80.5 L400.5,80.5 L400.5,100.5 L380.5,100.5 L380.5,80.5 z" fill-opacity="0" stroke="#294270" stroke-width="1"/>
    </g>
    <g>
      <path d="M400.5,20.5 L420.5,20.5 L420.5,40.5 L400.5,40.5 L400.5,20.5 z" fill="#8FC7ED"/>
      <path d="M400.5,20.5 L420.5,20.5 L420.5,40.5 L400.5,40.5 L400.5,20.5 z" fill-opacity="0" stroke="#294270" stroke-width="1"/>
    </g>
    <g>
      <path d="M400.5,40.5 L420.5,40.5 L420.5,60.5 L400.5,60.5 L400.5,40.5 z" fill="#8FC7ED"/>
      <path d="M400.5,40.5 L420.5,40.5 L420.5,60.5 L400.5,60.5 L400.5,40.5 z" fill-opacity="0" stroke="#294270" stroke-width="1"/>
    </g>
    <g>
      <path d="M400.5,60.5 L420.5,60.5 L420.5,80.5 L400.5,80.5 L400.5,60.5 z" fill="#8FC7ED"/>
      <path d="M400.5,60.5 L420.5,60.5 L420.5,80.5 L400.5,80.5 L400.5,60.5 z" fill-opacity="0" stroke="#294270" stroke-width="1"/>
    </g>
    <g>
      <path d="M400.5,80.5 L420.5,80.5 L420.5,100.5 L400.5,100.5 L400.5,80.5 z" fill="#8FC7ED"/>
      <path d="M400.5,80.5 L420.5,80.5 L420.5,100.5 L400.5,100.5 L400.5,80.5 z" fill-opacity="0" stroke="#294270" stroke-width="1"/>
    </g>
    <path d="M350,120 z" fill="#8FC7ED"/>
    <g>
      <path d="M320.5,100.5 L340.5,100.5 L340.5,120.5 L320.5,120.5 L320.5,100.5 z" fill="#8FC7ED"/>
      <path d="M320.5,100.5 L340.5,100.5 L340.5,120.5 L320.5,120.5 L320.5,100.5 z" fill-opacity="0" stroke="#294270" stroke-width="1"/>
    </g>
    <g>
      <path d="M340.5,100.5 L360.5,100.5 L360.5,120.5 L340.5,120.5 L340.5,100.5 z" fill="#8FC7ED"/>
      <path d="M340.5,100.5 L360.5,100.5 L360.5,120.5 L340.5,120.5 L340.5,100.5 z" fill-opacity="0" stroke="#294270" stroke-width="1"/>
    </g>
    <path d="M390,120 z" fill="#8FC7ED"/>
    <g>
      <path d="M360.5,100.5 L380.5,100.5 L380.5,120.5 L360.5,120.5 L360.5,100.5 z" fill="#8FC7ED"/>
      <path d="M360.5,100.5 L380.5,100.5 L380.5,120.5 L360.5,120.5 L360.5,100.5 z" fill-opacity="0" stroke="#294270" stroke-width="1"/>
    </g>
    <g>
      <path d="M380.5,100.5 L400.5,100.5 L400.5,120.5 L380.5,120.5 L380.5,100.5 z" fill="#8FC7ED"/>
      <path d="M380.5,100.5 L400.5,100.5 L400.5,120.5 L380.5,120.5 L380.5,100.5 z" fill-opacity="0" stroke="#294270" stroke-width="1"/>
    </g>
    <g>
      <path d="M400.5,100.5 L420.5,100.5 L420.5,120.5 L400.5,120.5 L400.5,100.5 z" fill="#8FC7ED"/>
      <path d="M400.5,100.5 L420.5,100.5 L420.5,120.5 L400.5,120.5 L400.5,100.5 z" fill-opacity="0" stroke="#294270" stroke-width="1"/>
    </g>
    <path d="M350,80 C344.477,80 340,75.523 340,70 C340,64.477 344.477,60 350,60 C355.523,60 360,64.477 360,70 C360,75.523 355.523,80 350,80 z" fill="#294270"/>
    <path d="M370,60 C364.477,60 360,55.523 360,50 C360,44.477 364.477,40 370,40 C375.523,40 380,44.477 380,50 C380,55.523 375.523,60 370,60 z" fill="#294270"/>
    <path d="M370,80 C364.477,80 360,75.523 360,70 C360,64.477 364.477,60 370,60 C375.523,60 380,64.477 380,70 C380,75.523 375.523,80 370,80 z" fill="#294270"/>
    <path d="M390,80 C384.477,80 380,75.523 380,70 C380,64.477 384.477,60 390,60 C395.523,60 400,64.477 400,70 C400,75.523 395.523,80 390,80 z" fill="#294270"/>
    <path d="M370,100 C364.477,100 360,95.523 360,90 C360,84.477 364.477,80 370,80 C375.523,80 380,84.477 380,90 C380,95.523 375.523,100 370,100 z" fill="#294270"/>
    <path d="M370,120 C364.477,120 360,115.523 360,110 C360,104.477 364.477,100 370,100 C375.523,100 380,104.477 380,110 C380,115.523 375.523,120 370,120 z" fill="#294270"/>
    <path d="M350,100 C344.477,100 340,95.523 340,90 C340,84.477 344.477,80 350,80 C355.523,80 360,84.477 360,90 C360,95.523 355.523,100 350,100 z" fill="#294270"/>
    <path d="M330,100 C324.477,100 320,95.523 320,90 C320,84.477 324.477,80 330,80 C335.523,80 340,84.477 340,90 C340,95.523 335.523,100 330,100 z" fill="#294270"/>
    <path d="M410,60 C404.477,60 400,55.523 400,50 C400,44.477 404.477,40 410,40 C415.523,40 420,44.477 420,50 C420,55.523 415.523,60 410,60 z" fill="#294270"/>
    <path d="M390,40 C384.477,40 380,35.523 380,30 C380,24.477 384.477,20 390,20 C395.523,20 400,24.477 400,30 C400,35.523 395.523,40 390,40 z" fill="#294270"/>
    <path d="M410,80 C404.477,80 400,75.523 400,70 C400,64.477 404.477,60 410,60 C415.523,60 420,64.477 420,70 C420,75.523 415.523,80 410,80 z" fill="#294270"/>
    <path d="M390,60 C384.477,60 380,55.523 380,50 C380,44.477 384.477,40 390,40 C395.523,40 400,44.477 400,50 C400,55.523 395.523,60 390,60 z" fill="#294270"/>
    <path d="M390,100 C384.477,100 380,95.523 380,90 C380,84.477 384.477,80 390,80 C395.523,80 400,84.477 400,90 C400,95.523 395.523,100 390,100 z" fill="#294270"/>
    <g>
      <path d="M420.5,20.5 L440.5,20.5 L440.5,40.5 L420.5,40.5 L420.5,20.5 z" fill="#8FC7ED"/>
      <path d="M420.5,20.5 L440.5,20.5 L440.5,40.5 L420.5,40.5 L420.5,20.5 z" fill-opacity="0" stroke="#294270" stroke-width="1"/>
    </g>
    <g>
      <path d="M420.5,40.5 L440.5,40.5 L440.5,60.5 L420.5,60.5 L420.5,40.5 z" fill="#8FC7ED"/>
      <path d="M420.5,40.5 L440.5,40.5 L440.5,60.5 L420.5,60.5 L420.5,40.5 z" fill-opacity="0" stroke="#294270" stroke-width="1"/>
    </g>
    <g>
      <path d="M420.5,60.5 L440.5,60.5 L440.5,80.5 L420.5,80.5 L420.5,60.5 z" fill="#8FC7ED"/>
      <path d="M420.5,60.5 L440.5,60.5 L440.5,80.5 L420.5,80.5 L420.5,60.5 z" fill-opacity="0" stroke="#294270" stroke-width="1"/>
    </g>
    <g>
      <path d="M420.5,80.5 L440.5,80.5 L440.5,100.5 L420.5,100.5 L420.5,80.5 z" fill="#8FC7ED"/>
      <path d="M420.5,80.5 L440.5,80.5 L440.5,100.5 L420.5,100.5 L420.5,80.5 z" fill-opacity="0" stroke="#294270" stroke-width="1"/>
    </g>
    <g>
      <path d="M420.5,100.5 L440.5,100.5 L440.5,120.5 L420.5,120.5 L420.5,100.5 z" fill="#8FC7ED"/>
      <path d="M420.5,100.5 L440.5,100.5 L440.5,120.5 L420.5,120.5 L420.5,100.5 z" fill-opacity="0" stroke="#294270" stroke-width="1"/>
    </g>
    <path d="M430,80 C424.477,80 420,75.523 420,70 C420,64.477 424.477,60 430,60 C435.523,60 440,64.477 440,70 C440,75.523 435.523,80 430,80 z" fill="#294270"/>
    <path d="M350,140 z" fill="#8FC7ED"/>
    <g>
      <path d="M320.5,120.5 L340.5,120.5 L340.5,140.5 L320.5,140.5 L320.5,120.5 z" fill="#8FC7ED"/>
      <path d="M320.5,120.5 L340.5,120.5 L340.5,140.5 L320.5,140.5 L320.5,120.5 z" fill-opacity="0" stroke="#294270" stroke-width="1"/>
    </g>
    <g>
      <path d="M340.5,120.5 L360.5,120.5 L360.5,140.5 L340.5,140.5 L340.5,120.5 z" fill="#8FC7ED"/>
      <path d="M340.5,120.5 L360.5,120.5 L360.5,140.5 L340.5,140.5 L340.5,120.5 z" fill-opacity="0" stroke="#294270" stroke-width="1"/>
    </g>
    <path d="M390,140 z" fill="#8FC7ED"/>
    <g>
      <path d="M360.5,120.5 L380.5,120.5 L380.5,140.5 L360.5,140.5 L360.5,120.5 z" fill="#8FC7ED"/>
      <path d="M360.5,120.5 L380.5,120.5 L380.5,140.5 L360.5,140.5 L360.5,120.5 z" fill-opacity="0" stroke="#294270" stroke-width="1"/>
    </g>
    <g>
      <path d="M380.5,120.5 L400.5,120.5 L400.5,140.5 L380.5,140.5 L380.5,120.5 z" fill="#8FC7ED"/>
      <path d="M380.5,120.5 L400.5,120.5 L400.5,140.5 L380.5,140.5 L380.5,120.5 z" fill-opacity="0" stroke="#294270" stroke-width="1"/>
    </g>
    <g>
      <path d="M400.5,120.5 L420.5,120.5 L420.5,140.5 L400.5,140.5 L400.5,120.5 z" fill="#8FC7ED"/>
      <path d="M400.5,120.5 L420.5,120.5 L420.5,140.5 L400.5,140.5 L400.5,120.5 z" fill-opacity="0" stroke="#294270" stroke-width="1"/>
    </g>
    <path d="M370,140 C364.477,140 360,135.523 360,130 C360,124.477 364.477,120 370,120 C375.523,120 380,124.477 380,130 C380,135.523 375.523,140 370,140 z" fill="#294270"/>
    <g>
      <path d="M420.5,120.5 L440.5,120.5 L440.5,140.5 L420.5,140.5 L420.5,120.5 z" fill="#8FC7ED"/>
      <path d="M420.5,120.5 L440.5,120.5 L440.5,140.5 L420.5,140.5 L420.5,120.5 z" fill-opacity="0" stroke="#294270" stroke-width="1"/>
    </g>
    <path d="M350,160 z" fill="#8FC7ED"/>
    <g>
      <path d="M320.5,140.5 L340.5,140.5 L340.5,160.5 L320.5,160.5 L320.5,140.5 z" fill="#8FC7ED"/>
      <path d="M320.5,140.5 L340.5,140.5 L340.5,160.5 L320.5,160.5 L320.5,140.5 z" fill-opacity="0" stroke="#294270" stroke-width="1"/>
    </g>
    <g>
      <path d="M340.5,140.5 L360.5,140.5 L360.5,160.5 L340.5,160.5 L340.5,140.5 z" fill="#8FC7ED"/>
      <path d="M340.5,140.5 L360.5,140.5 L360.5,160.5 L340.5,160.5 L340.5,140.5 z" fill-opacity="0" stroke="#294270" stroke-width="1"/>
    </g>
    <path d="M390,160 z" fill="#8FC7ED"/>
    <g>
      <path d="M360.5,140.5 L380.5,140.5 L380.5,160.5 L360.5,160.5 L360.5,140.5 z" fill="#8FC7ED"/>
      <path d="M360.5,140.5 L380.5,140.5 L380.5,160.5 L360.5,160.5 L360.5,140.5 z" fill-opacity="0" stroke="#294270" stroke-width="1"/>
    </g>
    <g>
      <path d="M380.5,140.5 L400.5,140.5 L400.5,160.5 L380.5,160.5 L380.5,140.5 z" fill="#8FC7ED"/>
      <path d="M380.5,140.5 L400.5,140.5 L400.5,160.5 L380.5,160.5 L380.5,140.5 z" fill-opacity="0" stroke="#294270" stroke-width="1"/>
    </g>
    <g>
      <path d="M400.5,140.5 L420.5,140.5 L420.5,160.5 L400.5,160.5 L400.5,140.5 z" fill="#8FC7ED"/>
      <path d="M400.5,140.5 L420.5,140.5 L420.5,160.5 L400.5,160.5 L400.5,140.5 z" fill-opacity="0" stroke="#294270" stroke-width="1"/>
    </g>
    <path d="M350,120 C344.477,120 340,115.523 340,110 C340,104.477 344.477,100 350,100 C355.523,100 360,104.477 360,110 C360,115.523 355.523,120 350,120 z" fill="#294270"/>
    <g>
      <path d="M420.5,140.5 L440.5,140.5 L440.5,160.5 L420.5,160.5 L420.5,140.5 z" fill="#8FC7ED"/>
      <path d="M420.5,140.5 L440.5,140.5 L440.5,160.5 L420.5,160.5 L420.5,140.5 z" fill-opacity="0" stroke="#294270" stroke-width="1"/>
    </g>
    <g>
      <path d="M440.5,20.5 L460.5,20.5 L460.5,40.5 L440.5,40.5 L440.5,20.5 z" fill="#8FC7ED"/>
      <path d="M440.5,20.5 L460.5,20.5 L460.5,40.5 L440.5,40.5 L440.5,20.5 z" fill-opacity="0" stroke="#294270" stroke-width="1"/>
    </g>
    <g>
      <path d="M440.5,40.5 L460.5,40.5 L460.5,60.5 L440.5,60.5 L440.5,40.5 z" fill="#8FC7ED"/>
      <path d="M440.5,40.5 L460.5,40.5 L460.5,60.5 L440.5,60.5 L440.5,40.5 z" fill-opacity="0" stroke="#294270" stroke-width="1"/>
    </g>
    <g>
      <path d="M440.5,60.5 L460.5,60.5 L460.5,80.5 L440.5,80.5 L440.5,60.5 z" fill="#8FC7ED"/>
      <path d="M440.5,60.5 L460.5,60.5 L460.5,80.5 L440.5,80.5 L440.5,60.5 z" fill-opacity="0" stroke="#294270" stroke-width="1"/>
    </g>
    <g>
      <path d="M440.5,80.5 L460.5,80.5 L460.5,100.5 L440.5,100.5 L440.5,80.5 z" fill="#8FC7ED"/>
      <path d="M440.5,80.5 L460.5,80.5 L460.5,100.5 L440.5,100.5 L440.5,80.5 z" fill-opacity="0" stroke="#294270" stroke-width="1"/>
    </g>
    <g>
      <path d="M440.5,100.5 L460.5,100.5 L460.5,120.5 L440.5,120.5 L440.5,100.5 z" fill="#8FC7ED"/>
      <path d="M440.5,100.5 L460.5,100.5 L460.5,120.5 L440.5,120.5 L440.5,100.5 z" fill-opacity="0" stroke="#294270" stroke-width="1"/>
    </g>
    <path d="M430,100 C424.477,100 420,95.523 420,90 C420,84.477 424.477,80 430,80 C435.523,80 440,84.477 440,90 C440,95.523 435.523,100 430,100 z" fill="#294270"/>
    <g>
      <path d="M440.5,120.5 L460.5,120.5 L460.5,140.5 L440.5,140.5 L440.5,120.5 z" fill="#8FC7ED"/>
      <path d="M440.5,120.5 L460.5,120.5 L460.5,140.5 L440.5,140.5 L440.5,120.5 z" fill-opacity="0" stroke="#294270" stroke-width="1"/>
    </g>
    <g>
      <path d="M440.5,140.5 L460.5,140.5 L460.5,160.5 L440.5,160.5 L440.5,140.5 z" fill="#8FC7ED"/>
      <path d="M440.5,140.5 L460.5,140.5 L460.5,160.5 L440.5,160.5 L440.5,140.5 z" fill-opacity="0" stroke="#294270" stroke-width="1"/>
    </g>
    <path d="M410,140 C404.477,140 400,135.523 400,130 C400,124.477 404.477,120 410,120 C415.523,120 420,124.477 420,130 C420,135.523 415.523,140 410,140 z" fill="#294270"/>
    <path d="M410,120 C404.477,120 400,115.523 400,110 C400,104.477 404.477,100 410,100 C415.523,100 420,104.477 420,110 C420,115.523 415.523,120 410,120 z" fill="#294270"/>
    <path d="M390,160 C384.477,160 380,155.523 380,150 C380,144.477 384.477,140 390,140 C395.523,140 400,144.477 400,150 C400,155.523 395.523,160 390,160 z" fill="#294270"/>
    <path d="M390,140 C384.477,140 380,135.523 380,130 C380,124.477 384.477,120 390,120 C395.523,120 400,124.477 400,130 C400,135.523 395.523,140 390,140 z" fill="#294270"/>
    <path d="M390,120 C384.477,120 380,115.523 380,110 C380,104.477 384.477,100 390,100 C395.523,100 400,104.477 400,110 C400,115.523 395.523,120 390,120 z" fill="#294270"/>
    <path d="M410,100 C404.477,100 400,95.523 400,90 C400,84.477 404.477,80 410,80 C415.523,80 420,84.477 420,90 C420,95.523 415.523,100 410,100 z" fill="#294270"/>
    <path d="M450,100 C444.477,100 440,95.523 440,90 C440,84.477 444.477,80 450,80 C455.523,80 460,84.477 460,90 C460,95.523 455.523,100 450,100 z" fill="#294270"/>
    <path d="M430,120 C424.477,120 420,115.523 420,110 C420,104.477 424.477,100 430,100 C435.523,100 440,104.477 440,110 C440,115.523 435.523,120 430,120 z" fill="#294270"/>
  </g>
</svg>
